<svg xmlns="http://www.w3.org/2000/svg" width="486" height="481"><path fill="#61C485" d="M215 474.45c-4.68-.69-10.52-1.53-13-1.87-8.07-1.08-22.45-4.89-23.89-6.33-.85-.85-1.64-1.01-2.01-.41s-3.95-.2-9.1-2.02c-4.68-1.66-9.29-3.25-10.25-3.53-.96-.29-1.75-.92-1.75-1.41 0-.48-1.12-.88-2.5-.88s-3.4-.9-4.5-2-2.92-2-4.04-2c-2.37 0-7.85-2.67-15.47-7.55-2.97-1.9-5.71-3.45-6.09-3.45-1.02 0-11.84-7.25-12.23-8.19-.19-.45-.89-.81-1.57-.81s-3.01-1.57-5.17-3.5c-2.16-1.92-4.34-3.5-4.84-3.5-1.4 0-11.42-9.15-20.68-18.25.75.33 1.09-.09 1.09-1.23 0-1.61-4.71-5.14-5.63-4.22-.18.17-.01.68.4 1.33-6.97-7.02-12.57-13.15-12.15-13.82.27-.44-.28-.81-1.23-.81s-1.46-.26-1.14-.58-.17-1.37-1.08-2.33c-2.01-2.11-5.3-6.18-6.67-8.27-.55-.84-2.46-3.46-4.25-5.82-1.79-2.37-3.25-5.13-3.25-6.15s-.48-1.85-1.06-1.85-.78-.45-.44-1 .02-1-.7-1c-1.62 0-15.33-24.8-14.29-25.85.22-.21-.24-1.02-1.02-1.8-.77-.77-1.15-2.07-.84-2.88s.14-1.47-.38-1.47c-1.39 0-3.31-4.73-2.64-6.49.32-.83.12-1.51-.46-1.51-1.13 0-2.21-2.74-2.64-6.71-.16-1.39-.76-2.81-1.34-3.17-1.37-.85-5.32-15.1-4.54-16.37.34-.54.04-1.32-.64-1.74-.69-.43-1.22-2.62-1.19-4.89s-.26-4.12-.65-4.12-.63-1.58-.54-3.5-.2-3.5-.64-3.5-.57-.9-.28-2 .06-2-.51-2c-1.04 0-1.8-6.6-2.38-21.14.41 3.27.78 3.81 1.43 2.65.7-1.24.68-3.31-.07-6.55-.67-2.91-.86-9.36-.49-16.7.34-6.7.21-12.2-.29-12.51-.46-.27-.83 2.82-1.06 7.25.11-4.81.39-9.32.87-13.91-.04.49-.07.97-.08 1.41-.06 2.48.22 3.5.73 2.69.46-.72.86-3.87.89-7 .04-4.56-.11-5.1-.73-2.69-.14.55-.28 1.26-.41 2.04.24-1.91.52-3.86.83-5.86.1.2.27.32.49.32.93 0 1.53-2.45.82-3.29-.14-.17.47-1.4 1.34-2.75 1.77-2.72 3.26-11.3 1.81-10.4-1.26.78-1.16.35.98-4.12 2.34-4.88 3.85-13.01 2.23-12.01-.61.38-1.11 1.7-1.11 2.93s-.41 2.67-.92 3.19c.51-.52.92-2.09.92-3.48s1.17-6.14 2.61-10.55c3.84-11.84 4.54-13.52 5.57-13.52.52 0 .62-.52.23-1.15-.4-.64.06-1.72 1-2.41.95-.69 1.71-1.64 1.7-2.1-.07-2.48 1.68-6.84 6.34-15.84 6.58-12.71 7.73-14.5 9.35-14.5.72 0 1.04-.45.7-1s-.07-1 .61-1c.67 0 .94-.28.6-.63-.85-.84 2.08-6.37 3.37-6.37.57 0 .78-.41.47-.92s.56-1.81 1.94-2.89c1.38-1.09 2.51-2.64 2.51-3.44 0-.81 1.57-2.99 3.49-4.86 1.92-1.86 3.49-3.91 3.5-4.54s1.47-2.44 3.26-4.02c1.79-1.59 4.37-4.56 5.75-6.6s2.82-3.72 3.2-3.72c.38-.01 2.2-1.55 4.04-3.45.04.08.1.18.16.29.4.63.21 1.15-.41 1.15s-1.81.68-2.63 1.5c-.83.82-1.24 1.5-.93 1.5.32 0-1.56 2.15-4.17 4.78-6.22 6.25-10.22 11.38-10.24 13.12-.01.94.6.69 1.83-.73 1.02-1.17 2.22-1.8 2.66-1.4.45.4.51.2.13-.45-.37-.65-.21-1.47.36-1.82s.8-1.01.52-1.46c-.58-.95 2.28-2.28 3.39-1.59.41.25.7-.54.66-1.75-.04-1.24.47-2.09 1.16-1.96.68.14 2-.99 2.93-2.5.94-1.51 2.78-3.93 4.1-5.38 1.77-1.94 2.08-2.84 1.17-3.4-.15-.1-.27-.16-.38-.21C77.34 69.44 79.17 68 79.7 68c1.42 0 4.43-3.54 3.66-4.31-.36-.35.14-.95 1.11-1.32s4.29-3.07 7.39-6.01 6.43-5.35 7.39-5.35c.96-.01 1.76-.57 1.76-1.26.02-1.3 6.19-5.75 7.98-5.75.55 0 1.01-.4 1.01-.89 0-.48 1.69-1.67 3.75-2.64s4.11-2.37 4.55-3.11c.44-.75 1.61-1.36 2.6-1.36s2.83-.9 4.1-2 2.91-2 3.65-2 1.35-.37 1.35-.82c0-1.2 6.54-4.66 14.42-7.62.78-.29 1.55-.59 2.29-.89-2.65 1.25-4.71 2.42-4.71 2.87 0 .88 3.61.45 4.61-.55.55-.55 2.85-1.12 5.1-1.25s3.88-.58 3.63-.99.05-.75.67-.75 1.76-.63 2.53-1.39c1.19-1.19 1.1-1.47-.58-1.91-.71-.19-3.52.73-6.59 1.96.54-.27.92-.48 1.08-.62C154.3 18.5 173.08 12 175.67 12c1.34 0 3.66-.64 5.17-1.42 3.68-1.9 17.06-4.72 31.66-6.67 16.23-2.17 42.93-2.11 59.2-.3-3.43-.29-6.7-.29-6.7.25 0 .5 2.37 1.21 5.26 1.57s5.93 1.07 6.75 1.58c.93.58 1.62.56 1.83-.05.18-.53.65-.77 1.04-.53s1.37-.02 2.17-.59c.16-.12.31-.22.43-.31h.02c4.82 1.52 11.66 2.89 12.9 2.59.49-.12 1.62.11 2.5.51s2.44.81 3.47.92c1.32.13 2.98.44 4.67.83-1.69-.25-3.44-.25-4.16.19-.91.56-.72.98.69 1.53 2.79 1.1 7.43 1.06 7.43-.05 0-.33-.44-.65-1.11-.93 2.81.79 5.11 1.66 5.11 2.1 0 .49.42.64.93.32.51-.31 1.22-.11 1.57.46s1.01.81 1.45.53c1-.62 7.05 1.4 7.05 2.35 0 .38 1.21.78 2.69.91 1.49.12 2.95.56 3.25.96.31.41 1.23.89 2.06 1.06.83.18 3.13 1.44 5.13 2.81s4.7 2.54 6 2.61 2.98.59 3.72 1.15c.74.57 1.89 1.11 2.54 1.21 1.59.23 12.02 6.62 12.44 7.62.19.43 1.21.79 2.28.79 1.08 0 2.2.63 2.49 1.41.3.78 1.62 1.68 2.94 2.01s2.88 1.5 3.47 2.59c.58 1.1 1.94 1.99 3.01 1.99s3.57 1.58 5.55 3.5 4.13 3.5 4.77 3.5c.64.01 4.05 2.71 7.59 6 3.54 3.3 6.61 6 6.82 6 .91 0 3.25 2.95 3.25 4.1 0 .68.29.95.64.6.7-.71 13.36 11.14 13.36 12.51 0 .47 1.58 2.23 3.5 3.92s3.5 3.45 3.5 3.91 1.38 2.33 3.07 4.15 4.7 5.78 6.68 8.81 4.47 6.48 5.53 7.68c1.06 1.19 1.64 2.64 1.29 3.21-.36.58.27 1.62 1.39 2.32s2.04 1.86 2.04 2.57c0 .72.8 2.17 1.79 3.22.67.72 2.13 3.19 3.8 6.27-.26-.44-.51-.87-.76-1.27-2.78-4.46-2.8-4.47-2.46-1.32.2 1.75 1.09 3.93 2 4.83.91.91 1.39 2.06 1.08 2.57s-.05.92.57.92c.63 0 .97.54.75 1.2s.49 2.24 1.59 3.5c1.09 1.25 2.15 2.12 2.36 1.92.43-.44-1.16-4.56-3.16-8.62 3.27 6.3 6.53 13.24 6.15 13.62-.26.26 1.27 3.9 3.39 8.08 2.13 4.18 4.13 9.22 4.45 11.2.87 5.44 2.81 12.1 3.51 12.1.55 0 2.66 8.02 3.56 13.5.18 1.1 1.27 6.95 2.43 13 .6 3.14 1.07 6.36 1.45 10.03-.87-6.09-2.25-6.46-2.25-.12 0 3.61.37 5.33 1.04 4.91.66-.4.8 0 .39 1.07-.43 1.12-.27 1.48.45 1.03.49-.31.73-1.37.71-3.05.39 4.93.65 10.74.83 18.13.43 17.48.07 25.87-2.14 40.58-.01-.66-.16-1.08-.48-1.08-1.63 0-3.21 3.93-2.49 6.2.53 1.64.85 1.81 1.42.71.45-.84.82-1.85 1.09-2.82-.2 1.25-.41 2.55-.63 3.91-1.8 11-7.8 33.13-10.97 40.5-.71 1.65-2.49 5.92-3.95 9.5-3.54 8.68-11.95 25.19-16.3 32-4.36 6.82-11.27 17-12.91 19-.67.83-3.08 3.86-5.35 6.75s-4.54 5.25-5.05 5.25c-.5 0-.91.7-.91 1.56s-.45 1.28-1 .94-1.01-.03-1.02.69c-.02 1.44-14.35 15.78-22.83 22.85-2.95 2.45-6.17 5.13-7.16 5.96s-2.8 2.17-4.01 3c-1.22.83-3.24 2.29-4.5 3.25s-2.76 1.75-3.34 1.75c-.57 0-1.43.7-1.92 1.56-.48.86-1.66 1.68-2.62 1.82-.97.14-2.06.74-2.43 1.33-.72 1.15-10.69 7.22-12.44 7.57-.58.12-1.89 1.01-2.9 1.97-1 .96-2.58 1.75-3.5 1.75s-2.38.62-3.25 1.37c-1.54 1.33-11.87 5.85-25.08 10.96-7.33 2.83-27.68 8.37-36 9.8-23.26 3.98-54.15 4.98-72 2.32M98.75 190.87c2.95 1.62 4.81 1.94 8.75 1.48 4.77-.55 8.42-1.84 9.5-3.35.28-.38 1.85-1 3.5-1.38 2.19-.5 2.59-.41 1.5.33-1.21.82-1.01 1.03 1 1.05 1.57.02 2.05.32 1.28.81-.67.42 1.5.88 4.84 1.01 3.33.13 6.36.28 6.72.33 2.27.3 4.19-.3 3.66-1.15-.4-.65.24-.67 1.87-.05 1.36.52 3.64.73 5.06.48 1.45-.27 2.57 0 2.57.6 0 .68 2.41 1 6.5.87 3.57-.12 6.5-.58 6.5-1.03 0-.44.67-.55 1.5-.23 1.2.46 1.37-.04.87-2.52-.73-3.65 1.43-7.57 4.62-8.41 1.85-.48 1.95-.34.82 1.06-1.01 1.25-1.02 1.44-.04.85.86-.52 1.74.35 2.71 2.68 1.2 2.86 2.21 3.64 6.02 4.6 2.52.63 4.36 1.52 4.07 1.98-.28.46 1.27.73 3.44.61s3.7.17 3.41.64c-.3.48 1.32.87 3.58.87 2.71 0 3.89-.37 3.45-1.09-.44-.7.34-1.02 2.19-.89 4.56.31 5.53.06 4.75-1.19-.48-.79-.17-.96.95-.53.91.35 1.66.17 1.66-.39 0-.57.45-.75 1-.41s1 .11 1-.5.52-.8 1.15-.4c.66.4.89.27.54-.29-.34-.56.42-1.91 1.68-3.01 2-1.74 2.56-1.82 4.16-.65 1.02.74 1.56 1.35 1.21 1.35-1.17 0 1.32 5.66 2.55 5.79 12.58 1.31 16.54 1.13 19.08-.86 1.87-1.48 3.26-1.85 4.88-1.3 1.24.42 2.86.64 3.6.5.74-.15 1.08.17.76.7-.33.53.41.95 1.65.94 1.23-.02 3.79.21 5.69.49 1.9.29 5.28-.03 7.51-.7s4.62-1.03 5.3-.81c.68.23 1.24-.07 1.24-.67 0-1.76 1.77-1.24 4.02 1.17 1.74 1.87 3.04 2.22 7.79 2.09 8.65-.25 10.04-.58 9.41-2.22-.4-1.04-.17-1.2.84-.58 3.09 1.91 18.9 3.14 19.89 1.54 1.23-1.99 7.61-2.45 10.93-.79 2.13 1.06 4.82 1.38 8.84 1.03 3.18-.27 6.33-.53 7.01-.57.68-.05 2.18-1.09 3.34-2.33 1.96-2.08 2.03-2.65.94-7.87-1.2-5.79-.72-12.37 1.18-16.24.97-1.95 1.24-2.02 2.6-.66 1.1 1.1 1.46 3.32 1.31 8.09-.12 3.63.24 6.85.8 7.2s1.76 2.39 2.66 4.55c1.5 3.6 1.5 3.81.02 2.57-1.39-1.15-1.54-1.12-1.03.21.33.85 1.77 1.84 3.21 2.21 1.44.36 3.17 1.4 3.84 2.32.92 1.27 3.05 1.73 8.73 1.9 6.47.18 8-.11 11.01-2.16 1.92-1.3 3.76-2.11 4.08-1.79s.58-.54.58-1.91c0-2.2.35-2.44 2.99-2.05 1.64.24 2.74.83 2.44 1.32-.52.85-.05 1.06 2.82 1.29.69.06 2.05.78 3.02 1.6 2.7 2.28 4.86 2.54 16.53 2 9.63-.45 11.02-.75 13.23-2.9 1.36-1.32 1.8-2.07.97-1.67s-.44-.21.86-1.35c1.3-1.15 2.06-2.08 1.69-2.08s-.31-.56.13-1.25c1.15-1.81 1.04-3.11-.36-4.25-.96-.78-.91-1.42.23-2.94.8-1.07 1.45-1.6 1.45-1.19s.5.44 1.11.06c.77-.47.69-.94-.25-1.54-1.05-.66-.95-.86.45-.87 1.15-.01 1.54-.46 1.07-1.22-.41-.66-.64-2.96-.52-5.1.25-4.2-1.49-10.7-2.86-10.7-.46 0-2.32-1.57-4.14-3.5-3.06-3.24-5.79-4.81-4.36-2.5.95 1.54-.17 1.19-1.97-.62-4.15-4.14-21.96-4.04-26.15.15-1.24 1.24-1.96 2.55-1.6 2.92.36.36-.19.33-1.22-.07-1.38-.53-1.68-.38-1.11.55.55.88.22 1.15-1.08.9-1.03-.2-1.87-1.2-1.88-2.23 0-1.02-1.1-2.59-2.45-3.48-1.64-1.08-2.18-1.18-1.64-.3.66 1.09.38 1.1-1.55.1-1.29-.68-3.02-1.56-3.85-1.96s-1.46-1.68-1.42-2.84c.04-1.17-.52-2.12-1.25-2.12s-1.28-.34-1.21-.75c.06-.41.06-1.96 0-3.44-.09-2.03-.6-2.65-2.12-2.54-1.1.09-2 .43-2 .76 0 .34-3.04 1.25-6.75 2.02-5.19 1.08-7.5 2.15-10 4.64-1.79 1.78-3.25 3.97-3.25 4.85 0 2.53-2.19 3.95-6.29 4.08-2.08.06-3.55-.12-3.26-.4.57-.57-2.46-3.14-3.76-3.19-.44-.02-.52.53-.17 1.22.34.69.03.54-.7-.34-.72-.87-2.22-1.47-3.32-1.33-6.31.79-9 1.43-9.25 2.18-.35 1.05-7.59.77-9.42-.36-.72-.45-3.35-.85-5.83-.88-5.58-.07-11.43 3.56-10.49 6.52.33 1.03-.18 3.05-1.13 4.5-1.42 2.16-1.52 3.19-.61 5.79 1.15 3.29.63 8.67-.85 8.67-1.88 0-3.15-4.2-2.02-6.67 1.34-2.94 1.45-6.67.18-5.88-.86.53-3.72-6.11-3.29-7.67.17-.66-3.96-3.34-4.54-2.95-.88.6-3.27.01-2.83-.7.53-.86-8.74-2.95-13.29-3-1.3-.01-3.32.58-4.5 1.31-1.17.74-3.93 1.7-6.13 2.15-5.35 1.08-5.78 1.16-7.36 1.29-.8.07-1.11.76-.76 1.67.34.89.18 1.29-.39.94-.55-.33-.99-.22-.99.26s-.68 1.74-1.5 2.81c-1.46 1.88-1.48 1.88-.83.03.47-1.35.31-1.7-.54-1.17-.91.56-1.18-1.76-1.12-9.59.11-13.46.09-13.56-2.93-14.7-4.3-1.64-15.16-.83-18.88 1.4-2.73 1.63-3.19 2.4-2.68 4.47.93 3.76 1.09 17.12.21 17.66-.42.26-.5.9-.19 1.41.32.51-.12.93-.98.93s-1.56-.45-1.56-1-.48-1-1.06-1-.73.56-.34 1.25c.4.69.33.9-.14.46-.48-.43-1.03-2-1.23-3.48-.44-3.32-.28-3.18-3.81-3.45-1.61-.12-3.54-.82-4.31-1.57-.79-.77-3.15-1.26-5.5-1.15-2.26.11-4.95-.15-5.98-.58-1.14-.48-3.8-.1-6.8.98-2.71.98-5.18 1.52-5.49 1.22-.97-.98-3.11 1.75-2.54 3.24.39 1.02.06 1.24-1.18.77-.95-.37-1.51-.33-1.26.08.26.42-.2 1.87-1.02 3.24-.81 1.37-1.24 1.7-.94.74.67-2.18-.06-2.23-2.16-.14-1.48 1.49-1.69 1.43-2.55-.75-.52-1.3-.88-5.74-.79-9.86.12-5.87-.31-8.39-1.95-11.59-2.1-4.09-2.11-4.1-8.38-4.3-6.91-.23-11.22 1.21-12.12 4.04-.32 1.02-1.06 1.85-1.65 1.85-1.01 0-.77 3.65.66 10 .31 1.38.28 1.89-.07 1.14-.37-.81-.89-.97-1.26-.39-.35.54-1.75 1.3-3.13 1.68-1.8.51-2.1.42-1.06-.29 1.01-.7-.18-.9-4-.68-2.99.17-5.44.4-5.44.51 0 .1-1.23.28-2.73.39-2.74.2-5.68 3-5.74 5.45-.02.72-.37 1.1-.78.85-1.3-.78-2.74 1.7-3.1 5.34-.63 6.39-4.05 9.81-4.25 4.25l-.1-2.75-.79 2.5c-.63 1.97-.78 1.55-.7-2.04.06-2.5-.52-6.05-1.29-7.9-1.22-2.97-1.49-3.14-2.22-1.46-.7 1.57-.76 1.5-.39-.46.25-1.29 0-3.54-.56-5-.57-1.45-1.23-4.21-1.48-6.13-.45-3.47-1.61-5.4-3.42-5.63-.52-.07-1.43-.19-2.01-.26-.58-.06-.72-.68-.31-1.37.51-.85.21-.81-.94.12-1.1.9-1.69.98-1.69.25 0-1.44-11.14-1.49-16.25-.07-2.45.68-3.76 1.64-3.77 2.75-.01 1.46-.15 1.49-.98.2s-.97-1.26-.98.2c-.01.94-.67 2.07-1.47 2.51-.8.45-1.77 2.79-2.15 5.2-.58 3.59-.45 4.27.7 3.7.77-.39.43.02-.75.9-1.74 1.3-2.05 2.31-1.63 5.43.44 3.29.07 4.29-2.6 7.1-1.72 1.79-3.09 4.2-3.05 5.36.07 2.06.09 2.06.93.1.47-1.1.89-1.47.93-.83.12 2.05-1.11 4.34-2.03 3.77-.5-.31-.9.17-.9 1.06 0 .97-.46 1.33-1.15.9-.67-.4-.89-.27-.53.31.92 1.48-1.84 11.37-3.45 12.39-.76.48-.9.88-.33.88.57.01 1.11 1.03 1.2 2.27.25 3.51 3.87 5.23 11.45 5.44 3.75.1 6.81-.24 6.81-.75 0-.52.48-.94 1.07-.94 1.76 0 3.93-2.71 3.93-4.91 0-2.03.95-2.5 7.25-3.51 2.99-.49 5.71 1.49 5.82 4.24.06 1.36.24 1.29.93-.32.77-1.8.87-1.73.93.65.05 2 1 3.16 3.82 4.72m5.25 65.16c.82.54 2.62.69 4 .31 1.38-.37 7.45-.73 13.5-.8 6.6-.09 11.9-.63 13.25-1.37 1.24-.68 2.26-.89 2.27-.46 0 .44.49.11 1.08-.71.88-1.22.99-1.11.62.6s-.02 2.05 1.91 1.84c1.31-.15 2.37.04 2.37.41 0 .69 7.85.42 11.75-.41 1.4-.3 2.25-1.21 2.25-2.43 0-1.32.48-1.76 1.49-1.37.96.36 1.84-.28 2.44-1.79.68-1.7.96-1.87 1.01-.62.15 4.13 17.92 8.52 23.16 5.72 1.49-.8 2.41-.77 3.46.1.79.66 1.44.82 1.44.37s.54-.28 1.2.38c2.73 2.73 10.68.92 11.96-2.73.43-1.21 6.84-2.4 6.84-1.27 0 1.25 6.72 4.2 9.58 4.2 1.39 0 3.85-.69 5.48-1.53 2.3-1.19 3.43-1.28 5.07-.4 1.49.8 1.91.81 1.43.03-.42-.68.2-1.09 1.63-1.08 1.86.01 2.02.2.81.98-1.3.84-1.27.97.17.98.91.01 1.84.55 2.06 1.2.24.73.91.85 1.78.31.77-.47 2.73-1.01 4.35-1.18 1.62-.18 4.11-.54 5.53-.79 1.42-.26 4.3-.01 6.42.56 6.85 1.85 13.78 1.53 15.6-.72 2.01-2.49 7.23-2.47 11.96.03 3.27 1.73 6.97 1.8 15.38.28 1.51-.27 2.75-.06 2.75.48 0 .53.48.67 1.06.31s2.33-.13 3.88.51c3.81 1.58 11.07-.29 11.79-3.04.63-2.41 6.4-2.68 8.31-.38.7.85 1.88 1.31 2.62 1.03.74-.29 1.34-.05 1.34.51 0 .57.45.75 1 .41s1-.25 1 .19c0 1.16 19.25.32 20.74-.9.68-.56 1.96-.74 2.84-.4s2.1.31 2.71-.07c2.25-1.39 5.71-.89 6.28.91.32.99.99 1.54 1.5 1.23.51-.32.93-.16.93.35 0 .89 4.74.73 11.8-.4 1.82-.28 3.57-1.21 3.89-2.05.35-.9 1.35-1.32 2.45-1.03 1.02.26 1.86.01 1.86-.58 0-.58.88-.04 1.95 1.2 1.27 1.46 3.3 2.34 5.75 2.52 2.09.14 4.85.53 6.14.86 1.3.32 4.52-.24 7.21-1.26 2.67-1.01 4.99-1.44 5.16-.94.52 1.57 10.48 2.24 13.68.92 2.78-1.16 2.93-1.5 2.5-5.85-.25-2.54-1-4.97-1.67-5.39-.81-.52-.84-.78-.1-.79 1.23-.02.86-6.8-.6-11.02-.48-1.38-1.15-4.07-1.49-6-.87-4.94-9.32-11.5-14.45-11.23-2.87.15-3.18.01-1.58-.72 1.47-.67.35-.93-4.25-.98-3.55-.04-6.25.36-6.25.93 0 .55-.87 1-1.94 1s-2.22.45-2.56 1-1.49 1-2.56 1-1.85.34-1.73.75c.11.41-.59 2.1-1.56 3.75-.98 1.65-1.54 2.21-1.25 1.25.34-1.11 0-1.75-.93-1.75-.82 0-1.47-.92-1.47-2.06 0-1.13-.38-1.82-.85-1.53-1.45.89-3.17-3.99-1.87-5.29.61-.61.75-1.12.3-1.12s-.21-.76.55-1.69c1.18-1.46 1.16-1.57-.13-.81s-1.31.65-.14-.8c.75-.92 1.68-1.49 2.05-1.25.38.23 1.3-.56 2.05-1.76 1.28-2.05 1.25-2.1-.44-.7-1.67 1.38-1.75 1.32-1.1-.75 1.36-4.28-.13-6.24-4.74-6.22-3.17.01-3.82.26-2.68 1.04 1.33.91 1.33 1.01 0 .86-.83-.08-2.93-.1-4.67-.04-2.74.1-3.26.56-3.81 3.37-.76 3.87-2.39 7.6-4.39 10.01-.8.96-1.15 2.05-.79 2.41.36.37.66.14.66-.5 0-.65.52-1.17 1.15-1.17.7 0 .5.73-.5 1.83-.91 1-1.65 2.65-1.65 3.67 0 1.01-.28 1.55-.63 1.2s-1.53-.15-2.62.43c-1.55.83-1.82.79-1.21-.2.56-.91.3-1.08-.93-.61-.95.36-1.46.25-1.15-.26 1.19-1.93-2.09-2.79-14.96-3.94-8.36-.75-9.32-.63-13.5 1.55-2.48 1.29-5.24 2.87-6.14 3.52-1.3.92-1.99.83-3.25-.44-.89-.88-1.61-2.09-1.61-2.68 0-.98-1.38-1.48-3.25-1.19-.41.07-.75-.33-.75-.88 0-.57-2.9-1-6.69-1-5.3 0-7.12.41-8.81 2-1.84 1.73-2.47 1.83-4.8.75-1.48-.69-2.69-1.59-2.69-2-.01-1.2-9.82-.87-10.58.36-.47.77-.94.69-1.54-.25-.63-1-.86-1.03-.87-.11-.01.69-1.03 1.26-2.27 1.27-1.86.01-1.99.19-.75 1.07 1.33.94 1.33 1.02 0 .65-.83-.22-1.51-.82-1.52-1.32 0-.51-.36-1.47-.79-2.15s-.31-2.11.26-3.18c3.46-6.47-2.16-12.09-12.08-12.09-5.38 0-7.77 1.6-7.84 5.25-.02.96-.54 1.75-1.16 1.75-.78 0-.9 1.59-.39 5.25 1.23 8.81 1.04 12.66-.72 14.42-1.52 1.52-1.69 1.45-2.31-1.01-.37-1.46-1.1-2.66-1.63-2.66s-1.64-.68-2.46-1.5c-1.12-1.12-1.18-1.5-.21-1.5 3.29 0-4.12-3.5-7.6-3.58-2.17-.06-4.12-.62-4.33-1.26s-1.95-1.16-3.86-1.16c-2.3 0-3.24.38-2.79 1.11.48.77-.73 1-3.94.74-2.55-.2-4.63-.04-4.63.36s-.75.44-1.66.09c-1.12-.43-1.43-.26-.95.53.4.64.22 1.17-.39 1.17s-.82.48-.46 1.07c.36.58.05.98-.69.88-2.48-.34-3.97.04-3.45.88.28.46-.15.84-.97.84-1.91 0-2.72-3.36-2.28-9.54.2-2.84-.04-4.7-.57-4.37-.51.31-.63-.18-.28-1.1.35-.91.28-1.66-.16-1.66s-.76-1.01-.72-2.25c.08-2.12-.36-2.27-7.49-2.54-6.99-.27-7.78-.09-10.14 2.27-1.84 1.85-2.49 3.44-2.3 5.74.24 3.09-1.31 5.78-3.34 5.78-.54 0-1.19.56-1.44 1.25-.36 1-.88 1-2.58-.01-1.17-.69-2.13-.86-2.13-.38s-2.14 1.67-4.75 2.64c-6.13 2.3-7.5 3.44-6.9 5.74.4 1.54.23 1.66-.95.68-1.2-1-1.32-.88-.74.69.63 1.66.51 1.73-.96.53-.92-.75-2.63-2.92-3.81-4.81-1.26-2.04-2.68-3.24-3.48-2.93-.74.28-1.61.08-1.94-.44-.32-.53-1.8-1.01-3.28-1.08l-2.69-.12 3-.76c2.96-.75 2.95-.76-.81-.88-2.31-.07-3.56.27-3.19.88.72 1.17.69 1.17-10.88 1.56-4.89.16-9.95-.12-11.25-.61-1.49-.57-2.37-.54-2.37.07 0 .54-.34.93-.75.86-3.68-.58-5.25 3.18-5.25 12.59 0 7.48-.58 10.53-2 10.53s-2.01-3.1-.97-5.05c.84-1.58.73-1.8-.67-1.26-1.14.44-1.45.27-.97-.52.41-.66.16-1.2-.58-1.25-.86-.05-.92-.24-.17-.55 1.13-.46.51-3.57-1.79-8.87-.71-1.64-.76-1.55-.31.5.45 2.03.36 2.19-.5.83-.58-.92-.84-3.33-.58-5.35.45-3.52-1.38-7.23-2.84-5.77-.34.34-.62-.58-.62-2.04 0-1.47-.56-2.71-1.25-2.75-.96-.06-.97-.19-.03-.57.88-.36.74-1.01-.51-2.36-1.42-1.52-3.39-1.89-10.72-2.03-9.9-.18-12.49.42-12.49 2.91 0 .91-.89 2.21-1.99 2.89-1.09.68-1.92 2.03-1.84 2.99.32 3.82-.21 6.34-1.21 5.73-.68-.42-.82.34-.42 2.19.39 1.75.29 2.36-.26 1.59-.97-1.35-3.15 3.57-3.78 8.52-.19 1.5-.84 4-1.43 5.55-.6 1.56-.88 3.18-.62 3.59.88 1.42-1.78 8.17-3.03 7.69-.73-.28-1.38.67-1.64 2.41-.23 1.58-.01 2.62.48 2.32.5-.31.75.48.57 1.75-.41 2.83 2.4 3.77 9.67 3.25 8.88-.64 9.19-.83 10.04-6.08.67-4.16.86-4.45 1.51-2.26.48 1.59.79 1.87.85.77.09-1.64.31-1.64 3.85-.04 2.06.93 4.46 2.27 5.33 2.98s1.88 1.07 2.25.79c.37-.27.45-.2.18.16-1.02 1.36 1.85 3.34 4.86 3.36 1.72 0 3.81.46 4.63 1.01m136.56 132.04c2.12 2.34 4.04 2.47 5.22.37.48-.86 1.52-1.66 2.32-1.78 2.24-.33 6-4.44 4.59-5.02-.66-.26-.35-.52.68-.56 1.56-.07 1.67-.33.61-1.6-1.05-1.27-1-1.43.28-.93.84.32 1.88.04 2.29-.64.48-.77.34-.96-.38-.51-.76.46-.93.14-.52-.94.42-1.07 1.43-1.49 2.94-1.2 1.27.24 2.51-.08 2.76-.72.26-.69 1.82-1 3.8-.77 9.63 1.16 17.41.12 16.52-2.19-.28-.73-.02-1.83.58-2.43.78-.78.62-1.26-.58-1.72-.91-.35-1.41-1.04-1.11-1.52.3-.49-.2-.6-1.11-.25-1.69.65-3.72-1.41-2.83-2.86.95-1.53 2.31-.79 1.75.95-.47 1.47-.39 1.51.5.25.78-1.1.67-1.89-.4-2.95-1.27-1.28-1.65-1.21-3.02.5-1.5 1.88-1.52 1.87-.47-.3 1.19-2.45 2.99-2.88 4.73-1.14 1.42 1.42 3.6.13 2.89-1.71-.3-.77-.16-1.4.31-1.4.46 0 .88-1.01.93-2.25.16-4.16.81-6.02 2.54-7.29 1.09-.79 1.3-1.4.58-1.64-1.38-.46 2.43-2.42 6.38-3.28 2.49-.55 2.68-.83 1.53-2.33-.72-.94-.94-1.41-.49-1.03 1.28 1.07 6.54-5.57 6.14-7.74-.2-1.07-.4-2.23-.44-2.57-.05-.35-1.32-1.45-2.83-2.43-2.45-1.59-2.6-1.6-1.36-.09 1.22 1.48 1.19 1.62-.25 1.07-.9-.35-1.64-1.23-1.64-1.97 0-.73-2.17-3.16-4.83-5.41-5.9-4.97-6.04-5.57-4.14-17.46.99-6.25.92-7.18-.78-9.44-1.72-2.31-5.23-4.53-3.98-2.52.3.48-1.52.83-4.04.76-4.34-.12-5.19.22-8.76 3.44-1.22 1.1-1.48 1.1-1.53 0-.04-.73-.47-.31-.97.93s-1.29 2.25-1.76 2.25c-1.71 0-5.21-5.08-5.21-7.57 0-1.44-.43-2.28-1-1.93-.55.34-1.01.03-1.02-.69s-1.13-2.37-2.5-3.66c-1.36-1.3-2.48-3.06-2.48-3.92s-.28-1.28-.62-.94c-.35.34-1.51-.37-2.58-1.58-1.07-1.22-1.69-1.69-1.37-1.05.43.87-.02.87-1.84.01-1.33-.62-2.2-1.49-1.94-1.91.26-.43-.68-.25-2.09.39-1.41.65-2.55 1.89-2.54 2.76.01 1.4.14 1.41 1.07.09.94-1.33 1.01-1.33.63 0-.24.83-1.19 1.43-2.11 1.36-1.27-.11-1.42.17-.6 1.16.81.97.57 1.66-.96 2.73-1.12.79-1.7 1.8-1.29 2.25s.16.48-.55.07c-1.66-.95-4.46 1.33-3.79 3.09.29.74.05 1.34-.51 1.34-.57 0-.77.42-.45.93.33.54-2.55.88-6.95.82-4.13-.06-7.51-.36-7.51-.68 0-.75-6.92-.46-9.63.41-2.98.96-4.79 4.77-3.9 8.2.4 1.55.85 4.62 1 6.82s.38 4.45.52 5c.61 2.44-.07 6.57-.99 6-.55-.34-1 .08-1 .94s-.48 1.56-1.06 1.56-.73-.56-.33-1.25-.26-.38-1.47.69c-1.22 1.06-1.99 2.5-1.73 3.2.3.78-.06 1.05-.96.7-.8-.3-1.45-.03-1.45.61s-.49.87-1.08.5c-.6-.37-2.4.59-4 2.13-1.86 1.78-2.52 3.05-1.82 3.48.76.47.66 1.08-.32 2-1.2 1.13-1.15 1.57.41 3.13.99.99 2.23 1.81 2.75 1.81s1.25.5 1.63 1.11c.46.75-.08.89-1.69.43-1.84-.52-2.04-.43-.88.38.82.58 2.36 1.06 3.42 1.06 1.05.01 1.66.27 1.35.58-.93.93 4.28 5.53 5.45 4.8.62-.38.8-.21.43.4-.99 1.59 7.7 4.62 10.93 3.81 2.23-.56 2.57-.39 2.03 1.01-.6 1.56-.47 1.56 1.87.02 2.27-1.48 2.52-1.49 2.52-.06 0 .87-.45 1.3-1 .96s-1-.14-1 .44-.93 1.06-2.06 1.06-1.81.4-1.51.89-.01.86-.69.84c-4.39-.16-5.74.43-6.33 2.76-.34 1.37-.91 2.32-1.27 2.1-.6-.37-.78 5.63-.34 11.59.22 2.99 2.77 4.3 7.7 3.97 9.65-.66 13.61-1.1 14.42-1.6.51-.31 1.63.14 2.49 1 .87.87 2.02 1.3 2.57.96.58-.35.75.04.4.94-.38.98-.04 1.55.92 1.55.86 0 1.42.74 1.28 1.68-.3 1.99 2.25 5.25 3.82 4.9.6-.14.76-.06.35.17-1.36.76-.78 2.47.66 1.92.77-.29 2.19.33 3.15 1.4m32.11-32.72c-.01 1.85-5.95 1.77-8.68-.12-1.37-.95-2.49-2.4-2.49-3.23 0-1.13-2.02-1.75-8.18-2.5-4.5-.55-8.51-1.34-8.92-1.75-1.15-1.17-16.63-.93-15.9.25.34.55.25 1-.2 1s-1.32-.79-1.92-1.77c-1.19-1.89-.18-3.43 2.66-4.05 2.52-.55 5.96-3.17 5.7-4.34-.13-.62 1.24-1.53 3.05-2.02 1.8-.49 3.01-1.33 2.69-1.86-.33-.53-.09-.96.52-.96s.84-.44.51-.99c-.35-.55.03-.74.86-.42.88.34 1.93-.28 2.59-1.51.61-1.15.85-2.08.54-2.08-.32 0 0-.63.71-1.4s1.47-1.23 1.69-1.02c.74.71 4.15-3.93 4.78-6.51.34-1.42 1.68-3.85 2.98-5.4 1.29-1.56 2.06-3.36 1.7-4-.48-.86-.34-.88.55-.06.66.61 1.47 3.76 1.78 7 .32 3.24 1.01 6.44 1.54 7.11.53.66.69 3.14.37 5.5-.44 3.19-.34 3.77.39 2.28.79-1.59.91-1.23.6 1.79-.42 4.22 1.26 10.92 2.55 10.12.46-.28.57.18.24 1.04-.33.85-.14 1.55.42 1.55.55 0 1.47 1.35 2.05 3 1.09 3.12 3.51 4.32 2.52 1.25-.46-1.44-.37-1.49.48-.28.73 1.03.68 1.9-.16 2.93-.97 1.2-.89 1.36.39.88.88-.32 1.59-.07 1.59.57m106.74-180.62c-.7.7-2.54 1.24-4.09 1.2-2.48-.06-2.58-.18-.82-.93 1.66-.71 1.4-.89-1.5-1.03-3.24-.16-3.32-.23-1-.97 1.38-.44 1.91-.85 1.18-.9-1.97-.15-4.18-2.7-4.18-4.83 0-2.43 1.87-4.25 4.45-4.34 2.03-.07 2.03-.08.05-.93-1.6-.69-1.26-.87 1.75-.93 2.06-.04 3.78.27 3.82.68.13 1.36.98 7.71 1.3 9.73.17 1.09-.26 2.55-.96 3.25m-22.27 64.08c-1.7-.25-3.29.03-3.54.62-.45 1.1-.97-.19-.69-1.75.08-.46-.41-.49-1.07-.08-.67.41-2.86.78-4.86.83-3.66.07-5.1-1.98-2.58-3.66 1.74-1.17 2.33-.91 2.89 1.23.29 1.1 1.03 2 1.65 2 1.78 0 2.49-3.1.96-4.2-1.11-.79-1.06-.88.29-.45.92.3 1.86.23 2.08-.16.22-.38.27-.15.12.51-.17.68.33.96 1.16.64.8-.3 1.45-.92 1.45-1.36 0-1.31 5.15-.35 6.1 1.14 1.89 2.99-.04 5.26-3.96 4.69m-111.85-70.77c.27.85-.04 2.27-.69 3.16-1.07 1.45-1.35 1.4-2.89-.5-2.07-2.56-2.26-6.7-.3-6.7.95 0 1.22-.7.83-2.2-.51-1.95-.4-2.03.99-.75.86.8 1.44 1.68 1.29 1.95-.14.27.65 1.4 1.76 2.5 1.12 1.1 1.73 1.47 1.36.82s-.24-1.45.29-1.78c.55-.33.78.35.55 1.57-.58 3-1.41 3.59-2.63 1.86-.9-1.27-.97-1.26-.56.07M185 9.82c0 .37 1.35.68 3 .68s3-.3 3-.66c0-.37 1.24-.52 2.75-.35s3.3-.14 3.97-.69c.68-.55 2.71-1.1 4.52-1.22s4.14-.7 5.18-1.28c1.66-.93 1.54-1.05-1.02-1.06-1.59-.01-3.59.35-4.42.79-.84.44-4.22 1.08-7.5 1.42-6.79.71-9.48 1.38-9.48 2.37m276.81 315.67c-.22 1.93-.27 3.51-.1 3.51.66 0 5.29-10.95 5.29-12.51 0-1.45-.17-1.47-1.5-.13-.83.82-1.5 2.18-1.5 3.01s-.4 1.76-.89 2.06-1.07 2.13-1.3 4.06M141.74 171.34c-.53-.33-1.3-.05-1.71.62-.51.82-.94.5-1.32-.98-.37-1.41-1.01-1.91-1.81-1.42-.68.42-.38-.38.68-1.79 1.06-1.4 2.2-2.11 2.53-1.58.34.54 1.01.94 1.5.89s.94 1.02.99 2.38c.06 1.36-.33 2.21-.86 1.88M17.3 168.5c-.72 2.62.02 1.84 2.54-2.68 2.26-4.07 2.6-8.43.52-6.7-.68.56-1.52 2.45-1.87 4.2s-.89 4.08-1.19 5.18m194.06 66c.32.82.48 1.44.36 1.36-.12-.07-1.34-.34-2.72-.6-3.07-.57-4.18-2.15-2.66-3.78 1.27-1.36 3.98-.8 3.1.62-.31.5-.13.9.39.9.53 0 1.22.68 1.53 1.5M8.13 268.2c.12 3.14.51 5.52.89 5.29.37-.23.6-1.79.5-3.46a631 631 0 0 1-.34-7.03c-.1-2.2-.66-4-1.25-4-.58 0-.83.79-.54 1.75.3.96.63 4.32.74 7.45m267.79 205.08c-1.33.24-1.07.27.58.05 1.65-.21 3.88-.4 4.95-.41 1.08-.01 2.43-.39 3-.86.58-.46 1.95-1.1 3.05-1.4 1.1-.31-.02-.34-2.5-.09-2.48.26-5.58.51-6.9.55-1.68.05-2.01.32-1.08.89.96.6.66.95-1.1 1.27M33.12 131.9c.09 1.31.2 1.28.57-.15.25-.96 1.11-1.75 1.9-1.75.99 0 1.37-.95 1.21-3-.12-1.65-.54-3-.91-3-.89 0-2.93 5.8-2.77 7.9m325.94-96.63c.79.32 1.55.61 1.69.65s.25-.54.25-1.31c0-1.18-5.53-4.61-7.45-4.61-.97 0 3.85 4.62 5.51 5.27M450 350.85c0 3.11 2.02 1.6 2.26-1.7.09-1.18.48-2.15.85-2.15.38 0 1.17-1.37 1.75-3.03.63-1.8.67-2.8.1-2.45-.53.33-.96 1.18-.96 1.88 0 .71-.9 2.1-2 3.1s-2 2.96-2 4.35M319.6 179.53c.37 1.5.17 3.1-.47 3.74-.84.84-1.13.8-1.13-.13 0-.69-.45-.98-1-.64-1.56.97-1.17-2.47.47-4.11 1.29-1.3 1.55-1.16 2.13 1.14M35.61 352.91c1 1.7 1.95 3.09 2.11 3.09.15 0 .28-1.56.28-3.47 0-2.82-.31-3.35-1.66-2.83-1.24.48-1.46.27-.86-.78.63-1.1.53-1.16-.44-.26-1.01.93-.89 1.78.57 4.25m79.35 85.15c3.61 3.06 6.81 2.57 3.68-.57-.92-.92-1.64-1.14-1.64-.5 0 .62-.46.85-1.02.5s-.81-.95-.57-1.35c.25-.4-.53-.79-1.73-.86-1.91-.13-1.75.22 1.28 2.78M26.57 142.75c-.39 1.24-.28 2.25.24 2.25 1.55 0 2.81-2.3 3.02-5.48.18-2.82.11-2.87-1.19-1-.75 1.09-1.69 2.99-2.07 4.23m360.98 91.37c.02 1.59.02 2.83-.01 2.76-.02-.06-.85-.32-1.85-.58-2.18-.57-1.93-4.51.31-4.83 1.04-.15 1.52.68 1.55 2.65M213 474.04c1.93.38 4.85.71 6.5.72 2.48.03 2.16-.23-1.82-1.44-2.66-.81-5.58-1.14-6.5-.73-1.28.57-.84.92 1.82 1.45M215.5 4c-2.61.66-2.35.78 2 .87 2.75.05 5.68-.34 6.5-.87 1.83-1.18-3.85-1.18-8.5 0M88.68 60.35c1.01 1 2.32.77 2.32-.41 0-.58.4-.81.9-.5.49.3 1.15-.12 1.46-.95.32-.82.03-1.48-.64-1.46-1.76.05-4.81 2.55-4.04 3.32m203.57 263.83c.69.43.8.78.25.77-1.53-.02-3.97-2.28-4.26-3.95-.19-1.03.2-.9 1.25.44.83 1.07 2.07 2.3 2.76 2.74m-41.22-2.68c-.8 1.1-1.59 2.19-1.75 2.42-.15.23-.28-.06-.28-.63 0-.58.79-1.66 1.75-2.42 1.62-1.27 1.64-1.22.28.63m12.48 32.51c.33.55 1.03.99 1.55.99 1.44 0 1.12-.72-.61-1.38-.89-.34-1.29-.18-.94.39M356.5 252c-.34.55-.82 1-1.06 1s-.44-.45-.44-1 .48-1 1.06-1 .78.45.44 1m-96 100c-.34.55-.82 1-1.06 1s-.44-.45-.44-1 .48-1 1.06-1 .78.45.44 1m-57-5c.77 1.24.42 1.24-1.5 0-.9-.58-1.02-.98-.31-.98.66-.01 1.47.43 1.81.98m168.25-149.66c-.69.28-.13.5 1.25.5s1.94-.22 1.25-.5-1.81-.28-2.5 0M245.81 347.32c-.8.32-.56.55.61.6 1.05.04 1.64-.19 1.31-.52-.33-.34-1.2-.37-1.92-.08M281.84 5.34c-.89.27-1.99.14-2.47-.29-.23-.21-.84-.42-1.68-.61 1.59.27 2.99.57 4.15.9M9.26 199.78c.38-2.17.8-4.42 1.27-6.78.82-4.12 1.75-8.85 2.06-10.5.27-1.39.79-2.88 1.25-3.62-.46.74-.98 2.23-1.24 3.62-.32 1.65-1.24 6.54-2.05 10.86-.44 2.29-.9 4.6-1.29 6.42"/><path fill="#72BC92" d="M104 256.03c-.82-.55-2.91-1.01-4.63-1.01-3.01-.02-5.88-2-4.86-3.36.27-.36.19-.43-.18-.16-.37.28-1.38-.08-2.25-.79s-3.27-2.05-5.33-2.98c-3.54-1.6-3.76-1.6-3.85.04-.06 1.1-.37.82-.85-.77-.65-2.19-.84-1.9-1.51 2.26-.85 5.25-1.16 5.44-10.04 6.08-5.18.37-8.1 0-9.19-1.27l8.44-.28 8.66-.29 2.19-9h12.66l1.53 4.79 1.53 4.79 8.09-.29c7.96-.29 8.09-.33 7.84-2.79-.14-1.38-1.84-7.23-3.79-13s-3.66-10.95-3.81-11.5-1.76-5.63-3.59-11.28l-3.32-10.29-21.16.57-6.31 19.5c-3.46 10.73-6.95 21.65-7.74 24.29l-1.38 4.57c-.32-.47-.42-1.07-.32-1.77.18-1.27-.07-2.06-.57-1.75-.49.3-.71-.74-.48-2.32.26-1.74.91-2.69 1.64-2.41 1.25.48 3.91-6.27 3.03-7.69-.26-.41.02-2.03.62-3.59.59-1.55 1.24-4.05 1.43-5.55.63-4.95 2.81-9.87 3.78-8.52.55.77.65.16.26-1.59-.4-1.85-.26-2.61.42-2.19 1 .61 1.53-1.91 1.21-5.73-.08-.96.75-2.31 1.84-2.99 1.1-.68 1.99-1.98 1.99-2.89 0-2.49 2.59-3.09 12.49-2.91 7.33.14 9.3.51 10.72 2.03 1.25 1.35 1.39 2 .51 2.36-.94.38-.93.51.03.57.69.04 1.25 1.28 1.25 2.75 0 1.46.28 2.38.62 2.04 1.46-1.46 3.29 2.25 2.84 5.77-.26 2.02 0 4.43.58 5.35.86 1.36.95 1.2.5-.83-.45-2.05-.4-2.14.31-.5 2.3 5.3 2.92 8.41 1.79 8.87-.75.31-.69.5.17.55.74.05.99.59.58 1.25-.48.79-.17.96.97.52 1.4-.54 1.51-.32.67 1.26-1.04 1.95-.45 5.05.97 5.05s2-3.05 2-10.53c0-9.41 1.57-13.17 5.25-12.59.41.07.75-.32.75-.86 0-.61.88-.64 2.37-.07 1.3.49 6.36.77 11.25.61 11.57-.39 11.6-.39 10.88-1.56-.37-.61.88-.95 3.19-.88 3.76.12 3.77.13.81.88l-3 .76 2.69.12c1.48.07 2.96.55 3.28 1.08.33.52 1.2.72 1.94.44.8-.31 2.22.89 3.48 2.93 1.18 1.89 2.89 4.06 3.81 4.81 1.47 1.2 1.59 1.13.96-.53-.58-1.57-.46-1.69.74-.69 1.18.98 1.35.86.95-.68-.6-2.3.77-3.44 6.9-5.74 2.61-.97 4.75-2.16 4.75-2.64s.96-.31 2.13.38c1.7 1.01 2.22 1.01 2.58.01.25-.69.9-1.25 1.44-1.25 2.03 0 3.58-2.69 3.34-5.78-.19-2.3.46-3.89 2.3-5.74 2.36-2.36 3.15-2.54 10.14-2.27 7.13.27 7.57.42 7.49 2.54-.04 1.24.28 2.25.72 2.25s.51.75.16 1.66c-.35.92-.23 1.41.28 1.1.53-.33.77 1.53.57 4.37-.44 6.18.37 9.54 2.28 9.54.82 0 1.25-.38.97-.84-.52-.84.97-1.22 3.45-.88.74.1 1.05-.3.69-.88-.36-.59-.15-1.07.46-1.07s.79-.53.39-1.17c-.48-.79-.17-.96.95-.53.91.35 1.66.31 1.66-.09s2.08-.56 4.63-.36c3.21.26 4.42.03 3.94-.74-.45-.73.49-1.11 2.79-1.11 1.91 0 3.65.52 3.86 1.16s2.16 1.2 4.33 1.26c3.48.08 10.89 3.58 7.6 3.58-.97 0-.91.38.21 1.5.82.82 1.93 1.5 2.46 1.5s1.26 1.2 1.63 2.66c.62 2.46.79 2.53 2.31 1.01 1.76-1.76 1.95-5.61.72-14.42-.51-3.66-.39-5.25.39-5.25.62 0 1.14-.79 1.16-1.75.07-3.65 2.46-5.25 7.84-5.25 9.92 0 15.54 5.62 12.08 12.09-.57 1.07-.69 2.5-.26 3.18s.79 1.64.79 2.15c.01.5.69 1.1 1.52 1.32 1.33.37 1.33.29 0-.65-1.24-.88-1.11-1.06.75-1.07 1.24-.01 2.26-.58 2.27-1.27.01-.92.24-.89.87.11.6.94 1.07 1.02 1.54.25.76-1.23 10.57-1.56 10.58-.36 0 .41 1.21 1.31 2.69 2 2.33 1.08 2.96.98 4.8-.75 1.69-1.59 3.51-2 8.81-2 3.79 0 6.69.43 6.69 1 0 .55.34.95.75.88 1.87-.29 3.25.21 3.25 1.19 0 .59.72 1.8 1.61 2.68 1.26 1.27 1.95 1.36 3.25.44.9-.65 3.66-2.23 6.14-3.52 4.18-2.18 5.14-2.3 13.5-1.55 12.87 1.15 16.15 2.01 14.96 3.94-.31.51.2.62 1.15.26 1.23-.47 1.49-.3.93.61-.61.99-.34 1.03 1.21.2 1.09-.58 2.27-.78 2.62-.43s.63-.19.63-1.2c0-1.02.74-2.67 1.65-3.67 1-1.1 1.2-1.83.5-1.83-.63 0-1.15.52-1.15 1.17 0 .64-.3.87-.66.5-.36-.36-.01-1.45.79-2.41.82-.99 1.58-2.2 2.24-3.55-.23.78-.37 1.63-.37 2.28 0 1.77.65 2.01 5.57 2.01 3.62 0 6.1-.53 7.07-1.5.83-.82 1.23-1.5.89-1.5s.53-1.95 1.93-4.34c1.4-2.38 2.54-4.63 2.54-5 0-.36-3.37-.66-7.48-.66-7.35 0-7.49.05-8.06 2.75-.18.86-.48 1.88-.8 2.78.35-1.06.64-2.17.86-3.28.55-2.81 1.07-3.27 3.81-3.37 1.74-.06 3.84-.04 4.67.04 1.33.15 1.33.05 0-.86-1.14-.78-.49-1.03 2.68-1.04 4.61-.02 6.1 1.94 4.74 6.22-.65 2.07-.57 2.13 1.1.75 1.69-1.4 1.72-1.35.44.7-.75 1.2-1.67 1.99-2.05 1.76-.37-.24-1.3.33-2.05 1.25-1.17 1.45-1.15 1.56.14.8s1.31-.65.13.81c-.76.93-1 1.69-.55 1.69s.31.51-.3 1.12c-1.3 1.3.42 6.18 1.87 5.29.47-.29.85.4.85 1.53 0 1.14.65 2.06 1.47 2.06.93 0 1.27.64.93 1.75-.29.96.27.4 1.25-1.25.97-1.65 1.67-3.34 1.56-3.75-.12-.41.66-.75 1.73-.75s2.22-.45 2.56-1 1.49-1 2.56-1 1.94-.45 1.94-1c0-.57 2.7-.97 6.25-.93 4.6.05 5.72.31 4.25.98-1.6.73-1.29.87 1.58.72 5.13-.27 13.58 6.29 14.45 11.23.34 1.93 1.01 4.62 1.49 6 1.46 4.22 1.83 11 .6 11.02-.74.01-.71.27.1.79.67.42 1.42 2.85 1.67 5.39.43 4.35.28 4.69-2.5 5.85-3.2 1.32-13.16.65-13.68-.92-.17-.5-2.49-.07-5.16.94-2.69 1.02-5.91 1.58-7.21 1.26-1.29-.33-4.05-.72-6.14-.86-2.45-.18-4.48-1.06-5.75-2.52-1.07-1.24-1.95-1.78-1.95-1.2 0 .59-.84.84-1.86.58-1.1-.29-2.1.13-2.45 1.03-.32.84-2.07 1.77-3.89 2.05-7.06 1.13-11.8 1.29-11.8.4 0-.51-.42-.67-.93-.35-.51.31-1.18-.24-1.5-1.23-.57-1.8-4.03-2.3-6.28-.91-.61.38-1.83.41-2.71.07s-2.16-.16-2.84.4c-1.49 1.22-20.74 2.06-20.74.9 0-.44-.45-.53-1-.19s-1 .16-1-.41c0-.56-.6-.8-1.34-.51-.74.28-1.92-.18-2.62-1.03-1.91-2.3-7.68-2.03-8.31.38-.72 2.75-7.98 4.62-11.79 3.04-1.55-.64-3.3-.87-3.88-.51s-1.06.22-1.06-.31c0-.54-1.24-.75-2.75-.48-8.41 1.52-12.11 1.45-15.38-.28-4.73-2.5-9.95-2.52-11.96-.03-1.82 2.25-8.75 2.57-15.6.72-2.12-.57-5-.82-6.42-.56-1.42.25-3.91.61-5.53.79-1.62.17-3.58.71-4.35 1.18-.87.54-1.54.42-1.78-.31-.22-.65-1.15-1.19-2.06-1.2-1.44-.01-1.47-.14-.17-.98 1.21-.78 1.05-.97-.81-.98-1.43-.01-2.05.4-1.63 1.08.48.78.06.77-1.43-.03-1.64-.88-2.77-.79-5.07.4-1.63.84-4.09 1.53-5.48 1.53-2.67 0-8.74-2.58-9.5-3.94.07.07.14.13.21.19 2.95 2.56 13.13 2.4 17.52-.28 3.29-2 3.34-2 6.03-.08 1.5 1.06 4.06 2.13 5.69 2.37 8.14 1.2 9.41.58 10.16-4.97.46-3.46.25-4.07-1.58-4.55-1.93-.5-2.11-1.25-2.11-8.58 0-8.66-.69-11.41-3.76-14.91-6.47-7.37-25.8-6.62-31.79 1.23-3.99 5.23-3.09 6.85 4.36 7.92 5.84.83 6.41.74 7.8-1.25 1.89-2.7 4-2.75 5.4-.13 1.56 2.92.63 3.71-5.26 4.47-7.36.95-13.28 3.96-14.74 7.48-1.34 3.25-.63 7.83 1.47 10.44-1.53-.32-5.97.66-6.32 1.66-.04.13-.1.26-.16.38V202h-17v9.5c0 5.23-.27 9.5-.61 9.5-.33 0-1.94-1.12-3.57-2.5-5.95-5-15.26-2.15-18.86 5.77-2.21 4.88-2.57 13.97-.77 19.95 1.39 4.66 5.67 9.06 9.55 9.83 4.26.85 9.19-.61 12.37-3.66l2.89-2.76V254h15.67c-2.17 3-8.98 4.29-11.47 1.8-.66-.66-1.2-.83-1.2-.38s-.65.29-1.44-.37c-1.05-.87-1.97-.9-3.46-.1-5.24 2.8-23.01-1.59-23.16-5.72-.05-1.25-.33-1.08-1.01.62-.6 1.51-1.48 2.15-2.44 1.79-1.01-.39-1.49.05-1.49 1.37 0 1.22-.85 2.13-2.25 2.43-3.9.83-11.75 1.1-11.75.41 0-.37-1.06-.56-2.37-.41-1.93.21-2.28-.13-1.91-1.84s.26-1.82-.62-.6c-.59.82-1.08 1.15-1.08.71-.01-.43-1.03-.22-2.27.46-1.35.74-6.65 1.28-13.25 1.37-6.05.07-12.12.43-13.5.8-1.38.38-3.18.23-4-.31m-5.25-65.16c-2.82-1.56-3.77-2.72-3.82-4.72-.06-2.38-.16-2.45-.93-.65-.69 1.61-.87 1.68-.93.32-.11-2.75-2.83-4.73-5.82-4.24-6.3 1.01-7.25 1.48-7.25 3.51 0 2.2-2.17 4.91-3.93 4.91-.59 0-1.07.42-1.07.94 0 .51-3.06.85-6.81.75-7.58-.21-11.2-1.93-11.45-5.44-.09-1.24-.63-2.26-1.2-2.27-.57 0-.43-.4.33-.88 1.61-1.02 4.37-10.91 3.45-12.39-.36-.58-.14-.71.53-.31.69.43 1.15.07 1.15-.9 0-.89.4-1.37.9-1.06.92.57 2.15-1.72 2.03-3.77-.04-.64-.46-.27-.93.83-.84 1.96-.86 1.96-.93-.1-.04-1.16 1.33-3.57 3.05-5.36 2.67-2.81 3.04-3.81 2.6-7.1-.42-3.12-.11-4.13 1.63-5.43 1.18-.88 1.52-1.29.75-.9-1.15.57-1.28-.11-.7-3.7.38-2.41 1.35-4.75 2.15-5.2.8-.44 1.46-1.57 1.47-2.51.01-1.46.15-1.49.98-.2.36.56.59.87.74.92l-2.68 8.33c-1.81 5.64-3.67 11.37-4.14 12.75-3.84 11.31-9.92 30.38-9.92 31.1 0 .5 4.25.9 9.44.9h9.44l1.34-4.75 1.34-4.75 7.72-.29c5.79-.22 7.72.03 7.73 1 0 .71.47 2.96 1.03 5l1.03 3.71 8.72.29c4.79.16 9.12-.03 9.61-.41.8-.62-6.09-24.17-9.88-33.8-.76-1.93-2.62-7.44-4.13-12.25L98.65 134H75.36l-.38 1.18v-.38c.01-1.11 1.32-2.07 3.77-2.75 5.11-1.42 16.25-1.37 16.25.07 0 .73.59.65 1.69-.25 1.15-.93 1.45-.97.94-.12-.41.69-.27 1.31.31 1.37.58.07 1.49.19 2.01.26 1.81.23 2.97 2.16 3.42 5.63.25 1.92.91 4.68 1.48 6.13.56 1.46.81 3.71.56 5-.37 1.96-.31 2.03.39.46.73-1.68 1-1.51 2.22 1.46.77 1.85 1.35 5.4 1.29 7.9-.08 3.59.07 4.01.7 2.04l.79-2.5.1 2.75c.2 5.56 3.62 2.14 4.25-4.25.36-3.64 1.8-6.12 3.1-5.34.41.25.76-.13.78-.85.06-2.45 3-5.25 5.74-5.45 1.5-.11 2.73-.29 2.73-.39 0-.11 2.45-.34 5.44-.51 3.82-.22 5.01-.02 4 .68-1.04.71-.74.8 1.06.29 1.38-.38 2.78-1.14 3.13-1.68.37-.58.89-.42 1.26.39.35.75.38.24.07-1.14-1.43-6.35-1.67-10-.66-10 .59 0 1.33-.83 1.65-1.85.12-.38.31-.74.55-1.07v22.13l-3.53-3.11c-2.85-2.49-4.43-3.1-8.07-3.1-2.49 0-5.51.52-6.72 1.16-12.24 6.49-12.7 34.15-.66 40.04 6.5 3.18 15.42 1.59 17.99-3.21 1.55-2.91 2.99-2.43 2.99 1.01v3h8.38c.73 0 1.39.01 2.01.02 2.78.03 4.5.05 5.55-.78 1.72-1.35 1.65-4.98 1.47-14.53-.03-1.29-.06-2.69-.08-4.21-.14-8.25-.27-20.29-.29-26.75L163 131h-18.94c1.61-2.06 5.61-3.08 11.51-2.89 6.27.2 6.28.21 8.38 4.3 1.64 3.2 2.07 5.72 1.95 11.59-.09 4.12.27 8.56.79 9.86.86 2.18 1.07 2.24 2.55.75 2.1-2.09 2.83-2.04 2.16.14-.3.96.13.63.94-.74.82-1.37 1.28-2.82 1.02-3.24-.25-.41.31-.45 1.26-.08 1.24.47 1.57.25 1.18-.77-.57-1.49 1.57-4.22 2.54-3.24.31.3 2.78-.24 5.49-1.22 3-1.08 5.66-1.46 6.8-.98 1.03.43 3.72.69 5.98.58 2.35-.11 4.71.38 5.5 1.15.77.75 2.7 1.45 4.31 1.57 3.53.27 3.37.13 3.81 3.45.2 1.48.75 3.05 1.23 3.48.47.44.54.23.14-.46-.39-.69-.24-1.25.34-1.25s1.06.45 1.06 1 .7 1 1.56 1 1.3-.42.98-.93c-.31-.51-.23-1.15.19-1.41.88-.54.72-13.9-.21-17.66-.51-2.07-.05-2.84 2.68-4.47 3.72-2.23 14.58-3.04 18.88-1.4 3.02 1.14 3.04 1.24 2.93 14.7-.06 7.83.21 10.15 1.12 9.59.85-.53 1.01-.18.54 1.17-.65 1.85-.63 1.85.83-.03.82-1.07 1.5-2.33 1.5-2.81s.44-.59.99-.26c.57.35.73-.05.39-.94-.35-.91-.04-1.6.76-1.67 1.58-.13 2.01-.21 7.36-1.29 2.2-.45 4.96-1.41 6.13-2.15 1.18-.73 3.2-1.32 4.5-1.31 4.55.05 13.82 2.14 13.29 3-.44.71 1.95 1.3 2.83.7.58-.39 4.71 2.29 4.54 2.95-.43 1.56 2.43 8.2 3.29 7.67 1.27-.79 1.16 2.94-.18 5.88-1.13 2.47.14 6.67 2.02 6.67 1.48 0 2-5.38.85-8.67-.91-2.6-.81-3.63.61-5.79.95-1.45 1.46-3.47 1.13-4.5-.39-1.23.39-2.57 1.83-3.71-.19 1.93-.34 10.4-.34 20.34V189h18.74l.62-3.75c.34-2.06.62-7.65.63-12.42.01-10.01.5-11.83 3.15-11.83 2.64 0 2.8.78 3.1 15l.26 12.5 19.5.57v-15.51c0-18.17-1.11-22.43-6.48-24.98-3.9-1.85-10.73-2.06-13.84-.43-1.2.63-3.42 2.42-4.93 3.99l-2.75 2.84v-6.83l-8.59-.33c-3.69-.14-6.97-.14-8.34-.03 2.06-1.34 5.03-2.31 7.93-2.27 2.48.03 5.11.43 5.83.88 1.83 1.13 9.07 1.41 9.42.36.25-.75 2.94-1.39 9.25-2.18 1.1-.14 2.6.46 3.32 1.33.73.88 1.04 1.03.7.34-.35-.69-.27-1.24.17-1.22 1.3.05 4.33 2.62 3.76 3.19-.29.28 1.18.46 3.26.4 4.1-.13 6.29-1.55 6.29-4.08 0-.88 1.46-3.07 3.25-4.85 2.5-2.49 4.81-3.56 10-4.64 3.71-.77 6.75-1.68 6.75-2.02 0-.33.9-.67 2-.76 1.52-.11 2.03.51 2.12 2.54.06 1.42.06 2.9.01 3.38-.01-2.02-.19-3.2-.88-3.75-1.08-.86-3.41-.16-8.25 1.3-.43.12-.88.26-1.34.4-8.67 2.59-9.46 3.15-9.1 6.48.44 4-.5 5.38-3.67 5.38-2.89 0-2.89 0-2.89 6.44 0 5.71.21 6.41 1.84 6.09 3.85-.74 4.58.95 4.98 11.62.44 11.52 1.45 13.82 7.18 16.26 4.58 1.95 14.8 1.99 19.38.08 3.84-1.61 3.95-1.88 2.98-7.73-.59-3.58-.77-3.73-3.99-3.33-4.92.61-6.14-1.02-6.05-8.67.68 1.68 2.34 3.23 3.86 3.34.73.05.2.46-1.18.9-2.32.74-2.24.81 1 .97 2.9.14 3.16.32 1.5 1.03-1.76.75-1.66.87.82.93 1.55.04 3.39-.5 4.09-1.2s1.13-2.16.96-3.25c-.32-2.02-1.17-8.37-1.3-9.73-.04-.41-1.76-.72-3.82-.68-3.01.06-3.35.24-1.75.93 1.98.85 1.98.86-.05.93-1.88.06-3.38 1.05-4.06 2.52l.11-4.8 4.5-.07 4.5-.08.3-6.25.3-6.25h-10.24l.15-5.25c.05-1.73.11-3.16.12-4.33.08.33.57.58 1.2.58.73 0 1.29.95 1.25 2.12-.04 1.16.59 2.44 1.42 2.84s2.56 1.28 3.85 1.96c1.93 1 2.21.99 1.55-.1-.54-.88 0-.78 1.64.3 1.35.89 2.45 2.46 2.45 3.48.01 1.03.85 2.03 1.88 2.23 1.3.25 1.63-.02 1.08-.9-.57-.93-.27-1.08 1.11-.55 1.03.4 1.58.43 1.22.07-.36-.37.36-1.68 1.6-2.92 4.19-4.19 22-4.29 26.15-.15 1.8 1.81 2.92 2.16 1.97.62-1.43-2.31 1.3-.74 4.36 2.5 1.82 1.93 3.68 3.5 4.14 3.5 1.37 0 3.11 6.5 2.86 10.7-.12 2.14.11 4.44.52 5.1.47.76.08 1.21-1.07 1.22-.61 0-.98.04-1.1.14l-.45-5.58c-.92-11.42-7.19-17.32-19.49-18.34-18.07-1.49-28.29 10.4-24.64 28.65.9 4.53 7.03 10.73 12.37 12.51 10 3.34 24.01.82 29.45-5.3.92-1.05 1.55-1.9 1.85-2.62-.13.4-.34.82-.62 1.27-.44.69-.5 1.25-.13 1.25s-.39.93-1.69 2.08c-1.3 1.14-1.69 1.75-.86 1.35s.39.35-.97 1.67c-2.21 2.15-3.6 2.45-13.23 2.9-11.67.54-13.83.28-16.53-2-.97-.82-2.33-1.54-3.02-1.6-2.87-.23-3.34-.44-2.82-1.29.3-.49-.8-1.08-2.44-1.32-2.64-.39-2.99-.15-2.99 2.05 0 1.37-.26 2.23-.58 1.91s-2.16.49-4.08 1.79c-3.01 2.05-4.54 2.34-11.01 2.16-5.68-.17-7.81-.63-8.73-1.9-.67-.92-2.4-1.96-3.84-2.32-1.44-.37-2.88-1.36-3.21-2.21-.51-1.33-.36-1.36 1.03-.21 1.48 1.24 1.48 1.03-.02-2.57-.9-2.16-2.1-4.2-2.66-4.55s-.92-3.57-.8-7.2c.15-4.77-.21-6.99-1.31-8.09-1.36-1.36-1.63-1.29-2.6.66-1.9 3.87-2.38 10.45-1.18 16.24 1.09 5.22 1.02 5.79-.94 7.87-1.16 1.24-2.66 2.28-3.34 2.33-.68.04-3.83.3-7.01.57-4.02.35-6.71.03-8.84-1.03-3.32-1.66-9.7-1.2-10.93.79-.99 1.6-16.8.37-19.89-1.54-1.01-.62-1.24-.46-.84.58.63 1.64-.76 1.97-9.41 2.22-4.75.13-6.05-.22-7.79-2.09-2.25-2.41-4.02-2.93-4.02-1.17 0 .6-.56.9-1.24.67-.68-.22-3.07.14-5.3.81s-5.61.99-7.51.7c-1.9-.28-4.46-.51-5.69-.49-1.24.01-1.98-.41-1.65-.94.32-.53-.02-.85-.76-.7-.74.14-2.36-.08-3.6-.5-1.62-.55-3.01-.18-4.88 1.3-2.54 1.99-6.5 2.17-19.08.86-1.23-.13-3.72-5.79-2.55-5.79.35 0-.19-.61-1.21-1.35-1.6-1.17-2.16-1.09-4.16.65-1.26 1.1-2.02 2.45-1.68 3.01.35.56.12.69-.54.29-.63-.4-1.15-.21-1.15.4s-.45.84-1 .5-1-.16-1 .41c0 .56-.75.74-1.66.39-1.12-.43-1.43-.26-.95.53.78 1.25-.19 1.5-4.75 1.19-1.85-.13-2.63.19-2.19.89.44.72-.74 1.09-3.45 1.09-2.26 0-3.88-.39-3.58-.87.29-.47-1.24-.76-3.41-.64s-3.72-.15-3.44-.61c.29-.46-1.55-1.35-4.07-1.98-3.81-.96-4.82-1.74-6.02-4.6-.97-2.33-1.85-3.2-2.71-2.68-.98.59-.97.4.04-.85 1.13-1.4 1.03-1.54-.82-1.06-3.19.84-5.35 4.76-4.62 8.41.5 2.48.33 2.98-.87 2.52-.83-.32-1.5-.21-1.5.23 0 .45-2.93.91-6.5 1.03-4.09.13-6.5-.19-6.5-.87 0-.6-1.12-.87-2.57-.6-1.42.25-3.7.04-5.06-.48-1.63-.62-2.27-.6-1.87.05.53.85-1.39 1.45-3.66 1.15-.36-.05-3.39-.2-6.72-.33-3.34-.13-5.51-.59-4.84-1.01.77-.49.29-.79-1.28-.81-2.01-.02-2.21-.23-1-1.05 1.09-.74.69-.83-1.5-.33-1.65.38-3.22 1-3.5 1.38-1.08 1.51-4.73 2.8-9.5 3.35-3.94.46-5.8.14-8.75-1.48m177.36 164.38c2.29 2.61 4.59 4.75 5.11 4.75.56 0 .66-2.61.24-6.5-.39-3.67-.3-6.5.2-6.5.89 0 9.07-5.91 14.49-10.47 2.65-2.23 3.88-5.53 2.06-5.53-.44 0-2.46-1.57-4.5-3.5-2.04-1.92-3.71-3.27-3.71-3s-1.01-.38-2.25-1.43a213 213 0 0 0-4.67-3.84c-2.41-1.91-2.42-1.99-1.24-10.33.65-4.62 1.47-10.15 1.83-12.29l.57-3.49.01.02c1.7 2.26 1.77 3.19.78 9.44-1.9 11.89-1.76 12.49 4.14 17.46 2.66 2.25 4.83 4.68 4.83 5.41 0 .74.74 1.62 1.64 1.97 1.44.55 1.47.41.25-1.07-1.24-1.51-1.09-1.5 1.36.09 1.51.98 2.78 2.08 2.83 2.43.04.34.24 1.5.44 2.57.4 2.17-4.86 8.81-6.14 7.74-.45-.38-.23.09.49 1.03 1.15 1.5.96 1.78-1.53 2.33-3.95.86-7.76 2.82-6.38 3.28.72.24.51.85-.58 1.64-1.73 1.27-2.38 3.13-2.54 7.29-.05 1.24-.47 2.25-.93 2.25-.47 0-.61.63-.31 1.4.71 1.84-1.47 3.13-2.89 1.71-1.74-1.74-3.54-1.31-4.73 1.14-1.05 2.17-1.03 2.18.47.3 1.37-1.71 1.75-1.78 3.02-.5 1.07 1.06 1.18 1.85.4 2.95-.89 1.26-.97 1.22-.5-.25.56-1.74-.8-2.48-1.75-.95-.89 1.45 1.14 3.51 2.83 2.86.91-.35 1.41-.24 1.11.25-.3.48.2 1.17 1.11 1.52 1.2.46 1.36.94.58 1.72-.6.6-.86 1.7-.58 2.43.89 2.31-6.89 3.35-16.52 2.19-1.98-.23-3.54.08-3.8.77-.25.64-1.49.96-2.76.72-1.51-.29-2.52.13-2.94 1.2-.41 1.08-.24 1.4.52.94.72-.45.86-.26.38.51-.41.68-1.45.96-2.29.64-1.28-.5-1.33-.34-.28.93 1.06 1.27.95 1.53-.61 1.6-1.03.04-1.34.3-.68.56 1.41.58-2.35 4.69-4.59 5.02-.8.12-1.84.92-2.32 1.78-.46.82-1.03 1.29-1.68 1.44.72-.31 1.51-1.15 1.95-2.13 1.15-2.59 4.37-7.12 9.58-13.47 2.77-3.38 4.13-4.31 5.75-3.91 1.17.29 5.27.8 9.12 1.14s7.79.84 8.75 1.12 1.75.01 1.75-.58c0-1.71-7.85-9.8-11.87-12.24-2-1.21-3.88-2.56-4.18-3-.99-1.41-12.54-5.69-17.57-6.51-13.09-2.14-27.75.29-38.12 6.31-4.37 2.54-4.71 3.23-5.69 11.74l-.48 4.15c-.16-.39-.25-.83-.29-1.32-.44-5.96-.26-11.96.34-11.59.36.22.93-.73 1.27-2.1.59-2.33 1.94-2.92 6.33-2.76.68.02.99-.35.69-.84s.38-.89 1.51-.89 2.06-.48 2.06-1.06.45-.78 1-.44 1-.09 1-.96c0-1.43-.25-1.42-2.52.06-2.34 1.54-2.47 1.54-1.87-.02.54-1.4.2-1.57-2.03-1.01-3.23.81-11.92-2.22-10.93-3.81.37-.61.19-.78-.43-.4-1.17.73-6.38-3.87-5.45-4.8.31-.31-.3-.57-1.35-.58-1.06 0-2.6-.48-3.42-1.06-1.16-.81-.96-.9.88-.38 1.61.46 2.15.32 1.69-.43-.38-.61-1.11-1.11-1.63-1.11s-1.76-.82-2.75-1.81c-1.56-1.56-1.61-2-.41-3.13.98-.92 1.08-1.53.32-2-.7-.43-.04-1.7 1.82-3.48 1.6-1.54 3.4-2.5 4-2.13.59.37 1.08.14 1.08-.5s.65-.91 1.45-.61c.9.35 1.26.08.96-.7-.26-.7.51-2.14 1.73-3.2 1.21-1.07 1.87-1.38 1.47-.69s-.25 1.25.33 1.25 1.06-.7 1.06-1.56.45-1.28 1-.94c.92.57 1.6-3.56.99-6-.14-.55-.37-2.8-.52-5s-.6-5.27-1-6.82c-.64-2.49.13-5.17 1.73-6.82-.16.7-.01 2.14.29 4.85.36 3.19 1.07 8.24 1.58 11.22.51 2.99.93 6.19.93 7.12 0 .92-3.48 4.32-7.74 7.56-9.85 7.5-11.26 8.69-11.26 9.49 0 .36 3.49 3.28 7.75 6.48s8.36 6.42 9.11 7.15c.74.74 2.09 1.12 3 .86.9-.27 3.41-.8 5.58-1.18 16.49-2.93 32.48-15.62 40.21-31.89 1.96-4.14 4.08-7.53 4.71-7.54.69 0 .61-.35-.21-.87-1.04-.66-1.1-1.33-.25-2.92 2.18-4.07 1.31-8.47-2.65-13.33-2.06-2.54-4.43-5.64-5.25-6.88-.82-1.25-2.44-3.41-3.58-4.79l-1.63-1.95c.24.15.51.3.8.43 1.82.86 2.27.86 1.84-.01-.32-.64.3-.17 1.37 1.05 1.07 1.21 2.23 1.92 2.58 1.58.34-.34.62.08.62.94s1.12 2.62 2.48 3.92c1.37 1.29 2.49 2.94 2.5 3.66s.47 1.03 1.02.69c.57-.35 1 .49 1 1.93 0 2.49 3.5 7.57 5.21 7.57.47 0 1.26-1.01 1.76-2.25s.93-1.66.97-.93c.05 1.1.31 1.1 1.53 0 3.57-3.22 4.42-3.56 8.76-3.44 2.52.07 4.34-.28 4.04-.76-1.18-1.89 1.88-.03 3.67 2.13l-6.89.68c-3.99.39-7.88.95-8.64 1.24-1.69.65-4.96 10.84-5.9 18.38-1.68 13.45 4.09 31.36 13.6 42.2m-30.82-187.21c-.41-1.33-.34-1.34.56-.07 1.22 1.73 2.05 1.14 2.63-1.86.23-1.22 0-1.9-.55-1.57-.53.33-.66 1.13-.29 1.78s-.24.28-1.36-.82c-1.11-1.1-1.9-2.23-1.76-2.5.11-.2-.16-.71-.65-1.28 2.98.79 14.5 2.17 15.19 1.74.52-.32.94-1.17.94-1.9 0-1.77 4.06-2.76 5.7-1.4 1.87 1.56 1.6 4.63-.45 5.17-.96.25-4.6 1.03-8.08 1.72s-7.76 2.22-9.5 3.39c-6.63 4.45-6.42 14.02.39 17.64 5.53 2.95 12.81 2.52 17.71-1.03 3.68-2.66 4.2-2.79 5.4-1.34 2.02 2.43 7.27 4.29 12.05 4.27 5.71-.02 6.66-.79 7.36-6.03.54-4 .36-4.55-1.74-5.45-2.19-.94-2.37-1.66-2.84-11.6-.34-7.28-.97-11.2-2-12.5-4.59-5.82-8.77-7.4-19.5-7.37-10.5.02-17.68 4.01-20.46 11.36-.42 1.1-.72 2.1-.82 2.66-1.38-1.28-1.49-1.19-.98.75.39 1.5.12 2.2-.83 2.2-1.96 0-1.77 4.14.3 6.7 1.54 1.9 1.82 1.95 2.89.5.65-.89.96-2.31.69-3.16m-63.92 20.34c4.93 1.74 14.65 2.02 19.91.56 4.32-1.2 10.24-6 11.01-8.93.43-1.64-.21-2.18-3.64-3.11-2.28-.62-5.46-1.53-7.07-2.02-2.16-.66-3.34-.51-4.57.61-2.42 2.19-7.71 1.94-8.97-.42-.57-1.07-1.04-2.19-1.04-2.5 0-.32 6.07-.57 13.5-.57H214v-4.79c0-6.05-3.26-12.6-8.22-16.55-3.15-2.51-4.82-3.03-11-3.42-12.27-.78-19.59 2.56-23.82 10.85-2.13 4.16-2.63 13.08-1.05 18.59 1.3 4.53 6.65 9.99 11.46 11.7M116 217v37h17v-10.92c0-12.65.37-14.08 3.61-14.08H139v25h17v-15.48c0-15.48 0-15.49-2.75-18.57-4.89-5.47-14.3-4.82-19.28 1.34-1.63 2.01-1.66 1.99-2.29-1.13l-.63-3.16Zm162.92 34.08c2.48 2.47 3.72 2.92 8.07 2.92 5.46 0 8.48-1.13 11.17-4.21 1.6-1.82 1.68-1.78 2.34 1.2l.68 3.09 14.32-.58.55-36.5H299l-.01 10.25c-.02 12.69-.54 14.96-3.37 14.55-1.99-.28-2.15-1.02-2.62-12.3l-.5-12-8.25-.29-8.25-.29v31.23Zm110.4 1.59c1.2.6 4.88 1.14 8.18 1.2 4.88.1 6.54-.31 8.89-2.19l2.9-2.32 2.5 2.32c2.06 1.91 3.6 2.32 8.75 2.32 6.77 0 7.46-.56 7.46-6.08 0-1.83-.52-2.92-1.39-2.92-2.06 0-2.61-2.3-2.61-10.86 0-7.46-.86-10.09-4.46-13.68-4.3-4.29-17.21-5.88-24.16-2.98-6.11 2.56-11.6 10.09-8.63 11.85.41.24 3.52.76 6.9 1.14 5.68.65 6.21.54 6.82-1.38.91-2.85 5.16-2.83 6.07.03.83 2.63-.45 3.5-6.46 4.36-9.29 1.33-15.08 5.75-15.08 11.52 0 3.03 1.95 6.49 4.32 7.67M219 131v58h19v-58Zm111.5 121.12c4.63 2.13 18.28 2.59 21.82.74 3.15-1.66 7.79-7.05 7.46-8.69-.25-1.24-10.37-5.12-13.46-5.16-.65 0-1.47.89-1.82 1.99-.77 2.42-5.01 2.72-5.89.42-.34-.87-.61-4.01-.61-6.97 0-4.11.41-5.59 1.75-6.28 2.37-1.22 4.25-.4 4.25 1.85 0 2.9 1.05 2.98 8.78.7 8.15-2.4 8.83-3.65 4.69-8.57-5.44-6.47-21.36-8.17-28.65-3.06-7.92 5.55-10.86 15.1-7.28 23.66 2.07 4.95 4.2 7.18 8.96 9.37m-77.5-50.2V254h17.03l-.53-51.5-8.25-.29Zm19.67 153.43c0-.64-.71-.89-1.59-.57-1.28.48-1.36.32-.39-.88.84-1.03.89-1.9.16-2.93-.85-1.21-.94-1.16-.48.28.99 3.07-1.43 1.87-2.52-1.25-.58-1.65-1.5-3-2.05-3-.56 0-.75-.7-.42-1.55.33-.86.22-1.32-.24-1.04-1.29.8-2.97-5.9-2.55-10.12.31-3.02.19-3.38-.6-1.79-.73 1.49-.83.91-.39-2.28.32-2.36.16-4.84-.37-5.5-.53-.67-1.22-3.87-1.54-7.11-.31-3.24-1.12-6.39-1.78-7-.89-.82-1.03-.8-.55.06.36.64-.41 2.44-1.7 4-1.3 1.55-2.64 3.98-2.98 5.4-.63 2.58-4.04 7.22-4.78 6.51-.22-.21-.98.25-1.69 1.02s-1.03 1.4-.71 1.4c.31 0 .07.93-.54 2.08-.66 1.23-1.71 1.85-2.59 1.51-.83-.32-1.21-.13-.86.42.33.55.1.99-.51.99s-.85.43-.52.96c.32.53-.89 1.37-2.69 1.86-1.81.49-3.18 1.4-3.05 2.02.26 1.17-3.18 3.79-5.7 4.34-2.84.62-3.85 2.16-2.66 4.05.6.98 1.47 1.77 1.92 1.77s.54-.45.2-1c-.73-1.18 14.75-1.42 15.9-.25.41.41 4.42 1.2 8.92 1.75 6.16.75 8.18 1.37 8.18 2.5 0 .83 1.12 2.28 2.49 3.23 2.73 1.89 8.67 1.97 8.68.12M364 217v37h17v-37Zm-120.78 58.82-5.95 7.77c-5.65 7.37-7.61 10.32-10.26 11.23-1.74.6-3.77.32-7.31-.15-.69-.09-1.43-.19-2.24-.3-5.4-.68-10.89-1.51-12.21-1.84-.61-.16-1.06-.27-1.39-.25.46-.35.97-.62 1.51-.8 2.71-.87 9.63-1.16 9.63-.41 0 .32 3.38.62 7.51.68 4.4.06 7.28-.28 6.95-.82-.32-.51-.12-.93.45-.93.56 0 .8-.6.51-1.34-.67-1.76 2.13-4.04 3.79-3.09.71.41.96.38.55-.07s.17-1.46 1.29-2.25c1.53-1.07 1.77-1.76.96-2.73-.82-.99-.67-1.27.6-1.16.92.07 1.87-.53 2.11-1.36.38-1.33.31-1.33-.63 0-.93 1.32-1.06 1.31-1.07-.09-.01-.87 1.13-2.11 2.54-2.76 1.41-.64 2.35-.82 2.09-.39-.16.25.08.65.57 1.06m-2.66 112.25c-.96-1.07-2.38-1.69-3.15-1.4-1.44.55-2.02-1.16-.66-1.92.41-.23.25-.31-.35-.17-1.57.35-4.12-2.91-3.82-4.9.14-.94-.42-1.68-1.28-1.68-.96 0-1.3-.57-.92-1.55.35-.9.18-1.29-.4-.94-.55.34-1.7-.09-2.57-.96-.86-.86-1.98-1.31-2.49-1-.81.5-4.77.94-14.42 1.6-3.66.25-6.01-.41-7.06-1.99l6.82-.65c3.98-.38 9.13-1.1 11.43-1.59 2.31-.5 4.87-.64 5.69-.33 1.51.58 11.25 12.97 13.49 17.16.44.83 1.13 1.56 1.79 1.95-.66-.28-1.37-.83-2.1-1.63m-98.39-212.72c-1.09.98-1.61 1.46-2.18 1.51-.54.05-1.12-.29-2.24-.94-2.37-1.38-2.5-12.03-.18-14.35 1.98-1.97 2.88-1.97 4.86 0 2.31 2.31 2.14 11.61-.26 13.78m284.17 3.49c-.43-.78-1.64-1.33-3.68-1.83-2.29-.55-5.62-1.49-7.41-2.08-2.64-.86-3.56-.76-4.83.5-3.01 3.02-10.42 1.5-10.42-2.13 0-1 3.11-1.3 13.64-1.3h13.63l-.04-.59q.15.18.63.48c.94.6 1.02 1.07.25 1.54-.61.38-1.11.35-1.11-.06s-.65.12-1.45 1.19c-1.14 1.52-1.19 2.16-.23 2.94.52.42.86.86 1.02 1.34m-240.81 60.07c-.8 2.53-3.68 4.24-5.37 3.19-1.54-.95-2.61-7.18-1.79-10.44.72-2.87 3.33-4.16 5.23-2.58 1.69 1.41 2.8 7.07 1.93 9.83M91 166.03c0 .53-1.84.97-4.08.97-4.06 0-4.08-.02-3.51-3.25 1.21-6.93 3.01-13.75 3.63-13.75.59 0 3.96 13.66 3.96 16.03m266.14 72.78c3.92.57 5.85-1.7 3.96-4.69-.95-1.49-6.1-2.45-6.1-1.14 0 .44-.65 1.06-1.45 1.36-.83.32-1.33.04-1.16-.64.15-.66.1-.89-.12-.51-.22.39-1.16.46-2.08.16-1.35-.43-1.4-.34-.29.45 1.53 1.1.82 4.2-.96 4.2-.62 0-1.36-.9-1.65-2-.56-2.14-1.15-2.4-2.89-1.23-2.52 1.68-1.08 3.73 2.58 3.66 2-.05 4.19-.42 4.86-.83.66-.41 1.15-.38 1.07.08-.28 1.56.24 2.85.69 1.75.25-.59 1.84-.87 3.54-.62m-266.72-8.36c.66 3.52.64 3.55-2.82 3.55-1.91 0-3.68-.34-3.92-.75-.41-.7 1.63-9.89 2.94-13.25.61-1.57 2.55 3.75 3.8 10.45m-76.58-51.57q.12-.21.24-.33c.51-.52.92-1.96.92-3.19s.5-2.55 1.11-2.93c1.62-1 .11 7.13-2.23 12.01-2.14 4.47-2.24 4.9-.98 4.12 1.45-.9-.04 7.68-1.81 10.4-.87 1.35-1.48 2.58-1.34 2.75.71.84.11 3.29-.82 3.29-.22 0-.39-.12-.49-.32.25-1.59.52-3.22.82-4.9.39-1.82.85-4.13 1.29-6.42.81-4.32 1.73-9.21 2.05-10.86.26-1.39.78-2.88 1.24-3.62M75.3 71.5c.09-.08.17-.17.25-.25.11.05.23.11.38.21.91.56.6 1.46-1.17 3.4-1.32 1.45-3.16 3.87-4.1 5.38-.93 1.51-2.25 2.64-2.93 2.5-.69-.13-1.2.72-1.16 1.96.04 1.21-.25 2-.66 1.75-1.11-.69-3.97.64-3.39 1.59.28.45.05 1.11-.52 1.46s-.73 1.17-.36 1.82c.38.65.32.85-.13.45-.44-.4-1.64.23-2.66 1.4-1.23 1.42-1.84 1.67-1.83.73.02-1.74 4.02-6.87 10.24-13.12 2.61-2.63 4.49-4.78 4.17-4.78-.31 0 .1-.68.93-1.5.82-.82 2.01-1.5 2.63-1.5s.81-.52.41-1.15c-.06-.11-.12-.21-.16-.29zM6.41 241.3c-.13-4.82-.16-9.17-.07-13.3.23-4.43.6-7.52 1.06-7.25.5.31.63 5.81.29 12.51-.37 7.34-.18 13.79.49 16.7.75 3.24.77 5.31.07 6.55-.65 1.16-1.02.62-1.43-2.65-.15-3.67-.29-7.85-.41-12.56m140.3-218.63c1.91-.76 3.6-1.49 4.66-2.01 3.07-1.23 5.88-2.15 6.59-1.96 1.68.44 1.77.72.58 1.91-.77.76-1.91 1.39-2.53 1.39s-.92.34-.67.75-1.38.86-3.63.99-4.55.7-5.1 1.25c-1 1-4.61 1.43-4.61.55 0-.45 2.06-1.62 4.71-2.87M185 9.82c0-.99 2.69-1.66 9.48-2.37 3.28-.34 6.66-.98 7.5-1.42.83-.44 2.83-.8 4.42-.79 2.56.01 2.68.13 1.02 1.06-1.04.58-3.37 1.16-5.18 1.28s-3.84.67-4.52 1.22c-.67.55-2.46.86-3.97.69s-2.75-.02-2.75.35c0 .36-1.35.66-3 .66s-3-.31-3-.68m10.61 153.6c.5 1.3-.21 1.58-4 1.58-4.61 0-5.14-.45-4-3.42.65-1.7 7.39-2.31 7.39-.66 0 .5.27 1.63.61 2.5m255.98-37.15c.64 1.18 1.31 2.44 1.97 3.73 2 4.06 3.59 8.18 3.16 8.62-.21.2-1.27-.67-2.36-1.92-1.1-1.26-1.81-2.84-1.59-3.5s-.12-1.2-.75-1.2c-.62 0-.88-.41-.57-.92s-.17-1.66-1.08-2.57c-.91-.9-1.8-3.08-2-4.83-.34-3.15-.32-3.14 2.46 1.32.25.4.5.83.76 1.27m-42.98 37.15c.5 1.3-.21 1.58-4 1.58-4.97 0-5.14-.14-3.57-3.07 1.05-1.98 6.96-2.84 6.96-1.01 0 .5.27 1.63.61 2.5m-141.8 11.83c-.26 2.71-.77 3.3-3.06 3.57-2.36.27-2.75-.05-2.75-2.22 0-1.48.8-2.96 1.93-3.56 3.29-1.76 4.22-1.23 3.88 2.21M281.84 5.34c.22.06.43.12.64.19-.12.09-.27.19-.43.31-.8.57-1.78.83-2.17.59s-.86 0-1.04.53c-.21.61-.9.63-1.83.05-.82-.51-3.86-1.22-6.75-1.58S265 4.36 265 3.86c0-.54 3.27-.54 6.7-.25 2.21.24 4.22.52 5.99.83.84.19 1.45.4 1.68.61.48.43 1.58.56 2.47.29m-53.45 238.08c-.67 1.75-2.18 2-4.24.69-2.14-1.35-.91-4.4 2.1-5.2 2.27-.61 2.75-.42 2.75 1.09 0 1.01-.27 2.55-.61 3.42m233.42 82.07c.23-1.93.81-3.76 1.3-4.06s.89-1.23.89-2.06.67-2.19 1.5-3.01c1.33-1.34 1.5-1.32 1.5.13 0 1.56-4.63 12.51-5.29 12.51-.17 0-.12-1.58.1-3.51M407 240.88c0 2.97-2.31 4.34-4.54 2.71-1.6-1.17-1.68-1.62-.55-2.98 1.86-2.25 5.09-2.07 5.09.27m-265.26-69.54c.53.33.92-.52.86-1.88-.05-1.36-.5-2.43-.99-2.38s-1.16-.35-1.5-.89c-.33-.53-1.47.18-2.53 1.58-1.06 1.41-1.36 2.21-.68 1.79.8-.49 1.44.01 1.81 1.42.38 1.48.81 1.8 1.32.98.41-.67 1.18-.95 1.71-.62m336.76 40.19c.12 1.22.24 2.5.34 3.84.02 1.68-.22 2.74-.71 3.05-.72.45-.88.09-.45-1.03.41-1.07.27-1.47-.39-1.07-.67.42-1.04-1.3-1.04-4.91 0-6.34 1.38-5.97 2.25.12M17.3 168.5c.3-1.1.84-3.43 1.19-5.18s1.19-3.64 1.87-4.2c2.08-1.73 1.74 2.63-.52 6.7-2.52 4.52-3.26 5.3-2.54 2.68m194.06 66c-.31-.82-1-1.5-1.53-1.5-.52 0-.7-.4-.39-.9.88-1.42-1.83-1.98-3.1-.62-1.52 1.63-.41 3.21 2.66 3.78 1.38.26 2.6.53 2.72.6.12.08-.04-.54-.36-1.36M8.13 268.2c-.11-3.13-.44-6.49-.74-7.45-.29-.96-.04-1.75.54-1.75.59 0 1.15 1.8 1.25 4 .09 2.2.25 5.37.34 7.03.1 1.67-.13 3.23-.5 3.46-.38.23-.77-2.15-.89-5.29m267.79 205.08c1.76-.32 2.06-.67 1.1-1.27-.93-.57-.6-.84 1.08-.89 1.32-.04 4.42-.29 6.9-.55 2.48-.25 3.6-.22 2.5.09-1.1.3-2.47.94-3.05 1.4-.57.47-1.92.85-3 .86-1.07.01-3.3.2-4.95.41-1.65.22-1.91.19-.58-.05m30.12-462.9c.96.23 1.93.48 2.85.74.67.28 1.11.6 1.11.93 0 1.11-4.64 1.15-7.43.05-1.41-.55-1.6-.97-.69-1.53.72-.44 2.47-.44 4.16-.19M33.12 131.9c-.16-2.1 1.88-7.9 2.77-7.9.37 0 .79 1.35.91 3 .16 2.05-.22 3-1.21 3-.79 0-1.65.79-1.9 1.75-.37 1.43-.48 1.46-.57.15m325.94-96.63c-1.66-.65-6.48-5.27-5.51-5.27 1.92 0 7.45 3.43 7.45 4.61 0 .77-.11 1.35-.25 1.31s-.9-.33-1.69-.65M450 350.85c0-1.39.9-3.35 2-4.35s2-2.39 2-3.1c0-.7.43-1.55.96-1.88.57-.35.53.65-.1 2.45-.58 1.66-1.37 3.03-1.75 3.03-.37 0-.76.97-.85 2.15-.24 3.3-2.26 4.81-2.26 1.7M319.6 179.53c-.58-2.3-.84-2.44-2.13-1.14-1.64 1.64-2.03 5.08-.47 4.11.55-.34 1-.05 1 .64 0 .93.29.97 1.13.13.64-.64.84-2.24.47-3.74m157.93 94.55c-.14.97-.3 1.97-.46 3.01-.27.97-.64 1.98-1.09 2.82-.57 1.1-.89.93-1.42-.71-.72-2.27.86-6.2 2.49-6.2.32 0 .47.42.48 1.08M35.61 352.91c-1.46-2.47-1.58-3.32-.57-4.25.97-.9 1.07-.84.44.26-.6 1.05-.38 1.26.86.78 1.35-.52 1.66.01 1.66 2.83 0 1.91-.13 3.47-.28 3.47-.16 0-1.11-1.39-2.11-3.09m79.35 85.15c-3.03-2.56-3.19-2.91-1.28-2.78 1.2.07 1.98.46 1.73.86-.24.4.01 1 .57 1.35s1.02.12 1.02-.5c0-.64.72-.42 1.64.5 3.13 3.14-.07 3.63-3.68.57M26.57 142.75c.38-1.24 1.32-3.14 2.07-4.23 1.3-1.87 1.37-1.82 1.19 1-.21 3.18-1.47 5.48-3.02 5.48-.52 0-.63-1.01-.24-2.25m360.98 91.37c-.03-1.97-.51-2.8-1.55-2.65-2.24.32-2.49 4.26-.31 4.83 1 .26 1.83.52 1.85.58.03.07.03-1.17.01-2.76M77.91 408.75c-1.41-1.39-2.8-2.77-4.14-4.12-.41-.65-.58-1.16-.4-1.33.92-.92 5.63 2.61 5.63 4.22 0 1.14-.34 1.56-1.09 1.23M213 474.04c-2.66-.53-3.1-.88-1.82-1.45.92-.41 3.84-.08 6.5.73 3.98 1.21 4.3 1.47 1.82 1.44-1.65-.01-4.57-.34-6.5-.72M215.5 4c4.65-1.18 10.33-1.18 8.5 0-.82.53-3.75.92-6.5.87-4.35-.09-4.61-.21-2-.87M7.21 214.09c.12-1.18.25-2.36.4-3.55.13-.78.27-1.49.41-2.04.62-2.41.77-1.87.73 2.69-.03 3.13-.43 6.28-.89 7-.51.81-.79-.21-.73-2.69.01-.44.04-.92.08-1.41M88.68 60.35c-.77-.77 2.28-3.27 4.04-3.32.67-.02.96.64.64 1.46-.31.83-.97 1.25-1.46.95-.5-.31-.9-.08-.9.5 0 1.18-1.31 1.41-2.32.41m203.57 263.83c-.69-.44-1.93-1.67-2.76-2.74-1.05-1.34-1.44-1.47-1.25-.44.29 1.67 2.73 3.93 4.26 3.95.55.01.44-.34-.25-.77m-41.22-2.68c1.36-1.85 1.34-1.9-.28-.63-.96.76-1.75 1.84-1.75 2.42 0 .57.13.86.28.63.16-.23.95-1.32 1.75-2.42m12.48 32.51c-.35-.57.05-.73.94-.39 1.73.66 2.05 1.38.61 1.38-.52 0-1.22-.44-1.55-.99M356.5 252c.34-.55.14-1-.44-1s-1.06.45-1.06 1 .2 1 .44 1 .72-.45 1.06-1m-96 100c.34-.55.14-1-.44-1s-1.06.45-1.06 1 .2 1 .44 1 .72-.45 1.06-1m-57-5c-.34-.55-1.15-.99-1.81-.98-.71 0-.59.4.31.98 1.92 1.24 2.27 1.24 1.5 0m168.25-149.66c.69-.28 1.81-.28 2.5 0s.13.5-1.25.5-1.94-.22-1.25-.5M245.81 347.32c.72-.29 1.59-.26 1.92.08.33.33-.26.56-1.31.52-1.17-.05-1.41-.28-.61-.6"/><path fill="#F2FCF8" d="M240.87 387.75c-2.24-4.19-11.98-16.58-13.49-17.16-.82-.31-3.38-.17-5.69.33-2.3.49-7.45 1.21-11.43 1.59l-7.25.69.56-4.85c.98-8.51 1.32-9.2 5.69-11.74 10.37-6.02 25.03-8.45 38.12-6.31 5.03.82 16.58 5.1 17.57 6.51.3.44 2.18 1.79 4.18 3 4.02 2.44 11.87 10.53 11.87 12.24 0 .59-.79.86-1.75.58s-4.9-.78-8.75-1.12-7.95-.85-9.12-1.14c-1.62-.4-2.98.53-5.75 3.91-5.21 6.35-8.43 10.88-9.58 13.47-.55 1.24-1.67 2.25-2.49 2.25s-2.03-1.01-2.69-2.25m35.24-32.5c-9.51-10.84-15.28-28.75-13.6-42.2.94-7.54 4.21-17.73 5.9-18.38.76-.29 4.65-.85 8.64-1.24l7.26-.72-.64 3.9c-.36 2.14-1.18 7.67-1.83 12.29-1.18 8.34-1.17 8.42 1.24 10.33 1.33 1.06 3.43 2.78 4.67 3.84 1.24 1.05 2.25 1.7 2.25 1.43s1.67 1.08 3.71 3c2.04 1.93 4.06 3.5 4.5 3.5 1.82 0 .59 3.3-2.06 5.53-5.42 4.56-13.6 10.47-14.49 10.47-.5 0-.59 2.83-.2 6.5.42 3.89.32 6.5-.24 6.5-.52 0-2.82-2.14-5.11-4.75m-72.25-8.52c-.75-.73-4.85-3.95-9.11-7.15s-7.75-6.12-7.75-6.48c0-.8 1.41-1.99 11.26-9.49 4.26-3.24 7.74-6.64 7.74-7.56 0-.93-.42-4.13-.93-7.12-.51-2.98-1.22-8.03-1.58-11.22-.64-5.73-.62-5.78 1.76-5.18 1.32.33 6.81 1.16 12.21 1.84 11.39 1.45 9.76 2.33 19.81-10.78l6.06-7.91 2.09 2.51c1.14 1.38 2.76 3.54 3.58 4.79.82 1.24 3.19 4.34 5.25 6.88 3.96 4.86 4.83 9.26 2.65 13.33-.85 1.59-.79 2.26.25 2.92.82.52.9.87.21.87-.63.01-2.75 3.4-4.71 7.54-7.73 16.27-23.72 28.96-40.21 31.89-2.17.38-4.68.91-5.58 1.18-.91.26-2.26-.12-3-.86m-32.12-92.68c-3.88-.77-8.16-5.17-9.55-9.83-1.8-5.98-1.44-15.07.77-19.95 3.6-7.92 12.91-10.77 18.86-5.77 1.63 1.38 3.24 2.5 3.57 2.5.34 0 .61-4.27.61-9.5V202h17v52h-16v-6.37l-2.89 2.76c-3.18 3.05-8.11 4.51-12.37 3.66m13.79-15.14c.87-2.76-.24-8.42-1.93-9.83-1.9-1.58-4.51-.29-5.23 2.58-.82 3.26.25 9.49 1.79 10.44 1.69 1.05 4.57-.66 5.37-3.19m54 15.35c-1.63-.24-4.19-1.31-5.69-2.37-2.69-1.92-2.74-1.92-6.03.08-4.39 2.68-14.57 2.84-17.52.28-2.72-2.35-3.78-7.65-2.28-11.28 1.46-3.52 7.38-6.53 14.74-7.48 5.89-.76 6.82-1.55 5.26-4.47-1.4-2.62-3.51-2.57-5.4.13-1.39 1.99-1.96 2.08-7.8 1.25-7.45-1.07-8.35-2.69-4.36-7.92 5.99-7.85 25.32-8.6 31.79-1.23 3.07 3.5 3.76 6.25 3.76 14.91 0 7.33.18 8.08 2.11 8.58 1.83.48 2.04 1.09 1.58 4.55-.75 5.55-2.02 6.17-10.16 4.97m-11.14-10.84c.34-.87.61-2.41.61-3.42 0-1.51-.48-1.7-2.75-1.09-3.01.8-4.24 3.85-2.1 5.2 2.06 1.31 3.57 1.06 4.24-.69m-165.86 5.87c.79-2.64 4.28-13.56 7.74-24.29l6.31-19.5 10.58-.28 10.58-.29 3.32 10.29c1.83 5.65 3.44 10.73 3.59 11.28s1.86 5.73 3.81 11.5 3.65 11.62 3.79 13c.25 2.46.12 2.5-7.84 2.79l-8.09.29-1.53-4.79-1.53-4.79H80.6l-1.1 4.5-1.09 4.5-8.66.29-8.66.29zm27.89-18.84c-1.25-6.7-3.19-12.02-3.8-10.45-1.31 3.36-3.35 12.55-2.94 13.25.24.41 2.01.75 3.92.75 3.46 0 3.48-.03 2.82-3.55M116 235.5V217h15.05l.63 3.16c.63 3.12.66 3.14 2.29 1.13 4.98-6.16 14.39-6.81 19.28-1.34 2.75 3.08 2.75 3.09 2.75 18.57V254h-17v-25h-2.39c-3.24 0-3.61 1.43-3.61 14.08V254h-17zm137-7.54v-26.04l8.25.29 8.25.29.27 25.75.26 25.75H253zm25.92 23.12-2.92-2.93v-31.23l8.25.29 8.25.29.5 12c.47 11.28.63 12.02 2.62 12.3 2.83.41 3.35-1.86 3.37-14.55L299 217h17.05l-.28 18.25-.27 18.25-7.16.29-7.16.29-.68-3.09c-.66-2.98-.74-3.02-2.34-1.2-2.69 3.08-5.71 4.21-11.17 4.21-4.35 0-5.59-.45-8.07-2.92m51.58 1.04c-4.76-2.19-6.89-4.42-8.96-9.37-3.58-8.56-.64-18.11 7.28-23.66 7.29-5.11 23.21-3.41 28.65 3.06 4.14 4.92 3.46 6.17-4.69 8.57-7.73 2.28-8.78 2.2-8.78-.7 0-2.25-1.88-3.07-4.25-1.85-1.34.69-1.75 2.17-1.75 6.28 0 2.96.27 6.1.61 6.97.88 2.3 5.12 2 5.89-.42.35-1.1 1.17-1.99 1.82-1.99 3.09.04 13.21 3.92 13.46 5.16.33 1.64-4.31 7.03-7.46 8.69-3.54 1.85-17.19 1.39-21.82-.74M364 235.5V217h17v37h-17zm25.32 17.17c-2.37-1.18-4.32-4.64-4.32-7.67 0-5.77 5.79-10.19 15.08-11.52 6.01-.86 7.29-1.73 6.46-4.36-.91-2.86-5.16-2.88-6.07-.03-.61 1.92-1.14 2.03-6.82 1.38-3.38-.38-6.49-.9-6.9-1.14-2.97-1.76 2.52-9.29 8.63-11.85 6.95-2.9 19.86-1.31 24.16 2.98 3.6 3.59 4.46 6.22 4.46 13.68 0 8.56.55 10.86 2.61 10.86.87 0 1.39 1.09 1.39 2.92 0 5.52-.69 6.08-7.46 6.08-5.15 0-6.69-.41-8.75-2.32l-2.5-2.32-2.9 2.32c-2.35 1.88-4.01 2.29-8.89 2.19-3.3-.06-6.98-.6-8.18-1.2M407 240.88c0-2.34-3.23-2.52-5.09-.27-1.13 1.36-1.05 1.81.55 2.98 2.23 1.63 4.54.26 4.54-2.71m-41-29.89c0-1.11.42-2.8.94-3.75.52-.96 1.2-2.98 1.52-4.49.57-2.7.71-2.75 8.06-2.75 4.11 0 7.48.3 7.48.66 0 .37-1.14 2.62-2.54 5-1.4 2.39-2.27 4.34-1.93 4.34s-.06.68-.89 1.5c-.97.97-3.45 1.5-7.07 1.5-4.92 0-5.57-.24-5.57-2.01m-260.21-21.78-8.72-.29-1.03-3.71c-.56-2.04-1.03-4.29-1.03-5-.01-.97-1.94-1.22-7.73-1l-7.72.29-1.34 4.75-1.34 4.75h-9.44c-5.19 0-9.44-.4-9.44-.9 0-.72 6.08-19.79 9.92-31.1.47-1.38 2.33-7.11 4.14-12.75l3.3-10.25h23.29l2.74 8.75c1.51 4.81 3.37 10.32 4.13 12.25 3.79 9.63 10.68 33.18 9.88 33.8-.49.38-4.82.57-9.61.41M91 166.03c0-2.37-3.37-16.03-3.96-16.03-.62 0-2.42 6.82-3.63 13.75-.57 3.23-.55 3.25 3.51 3.25 2.24 0 4.08-.44 4.08-.97m34.02 22.17c-12.04-5.89-11.58-33.55.66-40.04 1.21-.64 4.23-1.16 6.72-1.16 3.64 0 5.22.61 8.07 3.1l3.53 3.11V131h19l.04 11.75c.02 6.46.15 18.5.29 26.75.35 21.13 1.1 19.5-8.95 19.5H146v-3c0-3.44-1.44-3.92-2.99-1.01-2.57 4.8-11.49 6.39-17.99 3.21m17.15-12.85c2.4-2.17 2.57-11.47.26-13.78-1.98-1.97-2.88-1.97-4.86 0-2.32 2.32-2.19 12.97.18 14.35 2.3 1.34 2.3 1.34 4.42-.57m39.2 13.03c-4.81-1.71-10.16-7.17-11.46-11.7-1.58-5.51-1.08-14.43 1.05-18.59 4.23-8.29 11.55-11.63 23.82-10.85 6.18.39 7.85.91 11 3.42 4.96 3.95 8.22 10.5 8.22 16.55V172h-13.5c-7.43 0-13.5.25-13.5.57 0 .31.47 1.43 1.04 2.5 1.26 2.36 6.55 2.61 8.97.42 1.23-1.12 2.41-1.27 4.57-.61 1.61.49 4.79 1.4 7.07 2.02 3.43.93 4.07 1.47 3.64 3.11-.77 2.93-6.69 7.73-11.01 8.93-5.26 1.46-14.98 1.18-19.91-.56m14.24-24.96c-.34-.87-.61-2-.61-2.5 0-1.65-6.74-1.04-7.39.66-1.14 2.97-.61 3.42 4 3.42 3.79 0 4.5-.28 4-1.58m52.45 24.66c-6.81-3.62-7.02-13.19-.39-17.64 1.74-1.17 6.02-2.7 9.5-3.39s7.12-1.47 8.08-1.72c2.05-.54 2.32-3.61.45-5.17-1.64-1.36-5.7-.37-5.7 1.4 0 .73-.42 1.58-.94 1.9-.77.48-14.92-1.29-15.84-1.97-.15-.12.22-1.51.82-3.1 2.78-7.35 9.96-11.34 20.46-11.36 10.73-.03 14.91 1.55 19.5 7.37 1.03 1.3 1.66 5.22 2 12.5.47 9.94.65 10.66 2.84 11.6 2.1.9 2.28 1.45 1.74 5.45-.7 5.24-1.65 6.01-7.36 6.03-4.78.02-10.03-1.84-12.05-4.27-1.2-1.45-1.72-1.32-5.4 1.34-4.9 3.55-12.18 3.98-17.71 1.03m18.75-12.83c.34-3.44-.59-3.97-3.88-2.21-1.13.6-1.93 2.08-1.93 3.56 0 2.17.39 2.49 2.75 2.22 2.29-.27 2.8-.86 3.06-3.57M357 188.41c-5.73-2.44-6.74-4.74-7.18-16.26-.4-10.67-1.13-12.36-4.98-11.62-1.63.32-1.84-.38-1.84-6.09 0-6.44 0-6.44 2.89-6.44 3.17 0 4.11-1.38 3.67-5.38-.36-3.33.43-3.89 9.1-6.48 11.13-3.33 10.66-3.63 10.35 6.61l-.15 5.25h10.24l-.3 6.25-.3 6.25-4.5.08-4.5.07-.17 7.19c-.19 8.44.93 10.22 6.04 9.59 3.22-.4 3.4-.25 3.99 3.33.97 5.85.86 6.12-2.98 7.73-4.58 1.91-14.8 1.87-19.38-.08m38-.01c-5.34-1.78-11.47-7.98-12.37-12.51-3.65-18.25 6.57-30.14 24.64-28.65 12.3 1.02 18.57 6.92 19.49 18.34l.51 6.42h-13.63c-10.53 0-13.64.3-13.64 1.3 0 3.63 7.41 5.15 10.42 2.13 1.27-1.26 2.19-1.36 4.83-.5 1.79.59 5.12 1.53 7.41 2.08 4.57 1.12 4.98 2.5 1.79 6.09-5.44 6.12-19.45 8.64-29.45 5.3m13.61-24.98c-.34-.87-.61-2-.61-2.5 0-1.83-5.91-.97-6.96 1.01-1.57 2.93-1.4 3.07 3.57 3.07 3.79 0 4.5-.28 4-1.58M219 160v-29h19v58h-19zm75 8.67c0-11.19.19-20.52.41-20.75.23-.23 4.28-.27 9-.1l8.59.33v6.83l2.75-2.84c1.51-1.57 3.73-3.36 4.93-3.99 3.11-1.63 9.94-1.42 13.84.43 5.37 2.55 6.48 6.81 6.48 24.98v15.51l-9.75-.28-9.75-.29-.26-12.5c-.3-14.22-.46-15-3.1-15-2.65 0-3.14 1.82-3.15 11.83-.01 4.77-.29 10.36-.63 12.42l-.62 3.75H294z"/></svg>